<svg id="Layer_1" data-name="Layer 1" xmlns="http://www.w3.org/2000/svg" viewBox="0 0 714.28 770.18"><defs><style>.cls-1,.cls-10,.cls-11,.cls-12,.cls-13,.cls-14,.cls-15,.cls-16,.cls-17,.cls-18,.cls-19,.cls-2,.cls-20,.cls-21,.cls-22,.cls-23,.cls-24,.cls-25,.cls-26,.cls-27,.cls-28,.cls-29,.cls-3,.cls-30,.cls-31,.cls-32,.cls-33,.cls-34,.cls-35,.cls-36,.cls-37,.cls-38,.cls-39,.cls-4,.cls-40,.cls-41,.cls-42,.cls-43,.cls-44,.cls-45,.cls-46,.cls-47,.cls-48,.cls-49,.cls-5,.cls-50,.cls-51,.cls-52,.cls-53,.cls-54,.cls-55,.cls-56,.cls-57,.cls-58,.cls-59,.cls-6,.cls-7,.cls-8,.cls-9{fill:none;stroke-miterlimit:10;}.cls-1{stroke:#fbd2ce;}.cls-1,.cls-23,.cls-24,.cls-25,.cls-26,.cls-27,.cls-28,.cls-29,.cls-30,.cls-31,.cls-32,.cls-33,.cls-34,.cls-35,.cls-36,.cls-37,.cls-38,.cls-39,.cls-40,.cls-41,.cls-42,.cls-43,.cls-44,.cls-45,.cls-46,.cls-47,.cls-48,.cls-49,.cls-50,.cls-51,.cls-52,.cls-53,.cls-54,.cls-55,.cls-56,.cls-57,.cls-58,.cls-59{stroke-width:0.3px;}.cls-2{stroke:#f5cdcd;stroke-width:0.33px;}.cls-3{stroke:#efc8cb;stroke-width:0.37px;}.cls-4{stroke:#e8c3ca;stroke-width:0.4px;}.cls-5{stroke:#e2bfc8;stroke-width:0.43px;}.cls-6{stroke:#dcbac7;stroke-width:0.47px;}.cls-7{stroke:#d6b5c5;stroke-width:0.5px;}.cls-8{stroke:#d0b0c4;stroke-width:0.53px;}.cls-9{stroke:#c9abc2;stroke-width:0.57px;}.cls-10{stroke:#c3a6c1;stroke-width:0.6px;}.cls-11{stroke:#bda1bf;stroke-width:0.63px;}.cls-12{stroke:#b79dbe;stroke-width:0.67px;}.cls-13{stroke:#b198bc;stroke-width:0.7px;}.cls-14{stroke:#ab93bb;stroke-width:0.73px;}.cls-15{stroke:#a48eb9;stroke-width:0.77px;}.cls-16{stroke:#9e89b8;stroke-width:0.8px;}.cls-17{stroke:#9884b6;stroke-width:0.83px;}.cls-18{stroke:#927fb5;stroke-width:0.87px;}.cls-19{stroke:#8c7bb3;stroke-width:0.9px;}.cls-20{stroke:#8576b2;stroke-width:0.93px;}.cls-21{stroke:#7f71b0;stroke-width:0.97px;}.cls-22{stroke:#796caf;}.cls-23{stroke:#0096ac;}.cls-24{stroke:#0a9cae;}.cls-25{stroke:#14a3b0;}.cls-26{stroke:#1da9b3;}.cls-27{stroke:#27b0b5;}.cls-28{stroke:#31b6b7;}.cls-29{stroke:#3bbcb9;}.cls-30{stroke:#44c3bb;}.cls-31{stroke:#4ec9be;}.cls-32{stroke:#58cfc0;}.cls-33{stroke:#62d6c2;}.cls-34{stroke:#6bdcc4;}.cls-35{stroke:#75e3c6;}.cls-36{stroke:#7fe9c8;}.cls-37{stroke:#89efcb;}.cls-38{stroke:#92f6cd;}.cls-39{stroke:#9cfccf;}.cls-40{stroke:#0c99ae;}.cls-41{stroke:#189caf;}.cls-42{stroke:#249fb1;}.cls-43{stroke:#30a1b2;}.cls-44{stroke:#3ca4b4;}.cls-45{stroke:#48a7b6;}.cls-46{stroke:#54aab7;}.cls-47{stroke:#60adb9;}.cls-48{stroke:#6cb0bb;}.cls-49{stroke:#78b3bc;}.cls-50{stroke:#83b5be;}.cls-51{stroke:#8fb8bf;}.cls-52{stroke:#9bbbc1;}.cls-53{stroke:#a7bec3;}.cls-54{stroke:#b3c1c4;}.cls-55{stroke:#bfc4c6;}.cls-56{stroke:#cbc7c8;}.cls-57{stroke:#d7c9c9;}.cls-58{stroke:#e3cccb;}.cls-59{stroke:#efcfcc;}</style></defs><title>arcs</title><path class="cls-1" d="M329.05-181.1c18-8.31,123.24-56.77,166.16-44.31s180,52.62,203.55,76.16,47.08,181.39,48.46,216-92.77,81.7-113.54,127.39S498,307.69,473.06,286.92s-138.47-48.46-182.78-74.77S257,80.61,240.43,48.76s-27.69-102.47,0-124.62S329.05-181.1,329.05-181.1Z" transform="translate(-77.25 227.59)"/><path class="cls-2" d="M325.09-178.79c17.14-7.91,126.07-58,168.67-46s178.09,49.25,201.37,72.07,48.07,180.34,50,214.82S659.72,146.48,638.56,192,502.27,301,475.63,283s-136.62-42.7-182.38-68c-27.05-14.95-37-57.15-41.41-95-3.41-29.67-3.9-60-11.08-74.19-15.78-31.14-27-99.37-1-121.56,7.7-6.57,18.17-18.19,29.16-31.29C295.38-138.53,325.09-178.79,325.09-178.79Z" transform="translate(-77.25 227.59)"/><path class="cls-3" d="M321.14-176.48C337.42-184,450-235.76,492.31-224.09s176.18,45.89,199.19,68S740.56,23.18,743.13,57.53s-78.13,87-99.7,132.4S506.55,294.37,478.2,279.14s-134.82-36.86-182-61.19c-29.14-15-41.6-59.48-45.79-97.45-3.23-30.2-2.22-63.09-9.33-77.54-15-30.41-26.34-96.29-2-118.51,7.23-6.61,17.11-18,27.57-30.78C292-137.28,321.14-176.48,321.14-176.48Z" transform="translate(-77.25 227.59)"/><path class="cls-4" d="M317.18-174.17c15.43-7.12,131.74-60.53,173.68-49.25s174.27,42.53,197,63.89,50,178.23,53.21,212.45-70.82,89.61-92.77,134.91-137.48,99.89-167.54,87.43-133.08-31-181.59-54.4C267.94,205.77,252.88,159,249,121c-3.12-30.71-.54-66.15-7.59-80.9-14.18-29.67-25.66-93.21-3-115.45,6.77-6.66,16.06-17.87,26-30.28C288.64-136,317.18-174.17,317.18-174.17Z" transform="translate(-77.25 227.59)"/><path class="cls-5" d="M313.23-171.86c14.57-6.73,134.58-61.78,176.18-50.9S661.77-183.6,684.25-163,735.29,14.21,739,48.3s-63.5,92.25-85.85,137.41-138.07,95.34-169.85,85.65-131.37-25-181.19-47.61c-33.37-15.12-50.94-64.14-54.55-102.35-3-31.24,1.13-69.2-5.85-84.25-13.41-28.92-25-90.16-4-112.4,6.31-6.7,15-17.71,24.4-29.78C285.27-134.79,313.23-171.86,313.23-171.86Z" transform="translate(-77.25 227.59)"/><path class="cls-6" d="M309.27-169.56c13.71-6.33,137.41-63,178.69-52.55s170.45,35.8,192.67,55.72S732.65,9.73,737,43.68s-56.18,94.88-78.93,139.92-138.66,90.79-172.16,83.87-129.69-19-180.8-40.81c-35.51-15.14-55.57-66.48-58.93-104.8-2.79-31.76,2.8-72.25-4.1-87.6C229.42,6.1,217.79-52.86,237-75.09c5.85-6.76,14-17.56,22.81-29.28C281.89-133.55,309.27-169.56,309.27-169.56Z" transform="translate(-77.25 227.59)"/><path class="cls-7" d="M305.31-167.25c12.86-5.93,140.25-64.29,181.19-54.2S655-189,677-169.82,730,5.24,735,39.07s-48.86,97.52-72,142.42S523.7,267.74,488.49,263.58s-128-13-180.4-34c-37.66-15.12-60.2-68.81-63.31-107.25-2.62-32.28,4.46-75.3-2.36-91C230.48,4,218.8-52.73,236.34-74.93c5.39-6.82,12.9-17.4,21.23-28.78C278.51-132.32,305.31-167.25,305.31-167.25Z" transform="translate(-77.25 227.59)"/><path class="cls-8" d="M301.36-164.94c12-5.54,143.08-65.54,183.7-55.85s166.62,29.08,188.31,47.54,54,174,59.54,207.7-41.54,100.16-65.08,144.93S528,261.08,491.06,259.69s-126.38-6.92-180-27.23c-39.83-15.09-64.82-71.15-67.69-109.7-2.44-32.81,6.12-78.34-.62-94.31-11.21-26.59-22.93-81.08-7.08-103.23,4.92-6.88,11.84-17.25,19.64-28.28C275.14-131.09,301.36-164.94,301.36-164.94Z" transform="translate(-77.25 227.59)"/><path class="cls-9" d="M297.4-162.63c11.14-5.14,145.92-66.79,186.21-57.5s164.71,25.72,186.14,43.45,55,173,61.12,206.51-34.22,102.8-58.16,147.43S532.27,254.42,493.63,255.8,368.87,255,314,235.36c-42-15-69.44-73.48-72.07-112.15-2.27-33.33,7.77-81.38,1.13-97.66C232.55-.24,220.8-52.54,235-74.62c4.46-6.95,10.79-17.1,18.06-27.78C271.75-129.87,297.4-162.63,297.4-162.63Z" transform="translate(-77.25 227.59)"/><path class="cls-10" d="M293.45-160.33c10.29-4.75,148.75-68,188.71-59.15s162.8,22.35,184,39.36,56,171.9,62.71,205.33-26.9,105.43-51.23,149.94-141,72.6-181.39,76.75S373.07,257.23,317,238.26c-44.19-14.94-74.06-75.82-76.46-114.6-2.09-33.86,9.41-84.41,2.87-101-9.85-25-21.61-75.12-9.1-97.11,4-7,9.73-17,16.47-27.27C268.37-128.65,293.45-160.33,293.45-160.33Z" transform="translate(-77.25 227.59)"/><path class="cls-11" d="M289.49-158c9.43-4.35,151.59-69.3,191.22-60.79s160.89,19,181.79,35.28,57,170.84,64.29,204.14S707.2,128.67,682.47,173.05s-141.63,68-183.7,75S377.25,259.49,320,241.16c-46.38-14.84-78.68-78.16-80.84-117.05-1.91-34.38,11-87.44,4.61-104.36-9.19-24.17-21-72.17-10.11-94.06,3.53-7.11,8.66-16.82,14.88-26.77C265-127.44,289.49-158,289.49-158Z" transform="translate(-77.25 227.59)"/><path class="cls-12" d="M285.53-155.71c8.57-4,154.42-70.55,193.72-62.44s159,15.63,179.61,31.19,58,169.79,65.87,203-12.26,110.71-37.39,155-142.23,63.5-186,73.19-119.91,17.66-178.42-.07c-48.57-14.71-83.29-80.49-85.22-119.5C236,89.65,250.38,34.1,244.06,16.85c-8.55-23.35-20.35-69.24-11.12-91a223.9,223.9,0,0,1,13.3-26.27C261.58-126.24,285.53-155.71,285.53-155.71Z" transform="translate(-77.25 227.59)"/><path class="cls-13" d="M281.58-153.4c7.71-3.56,157.26-71.8,196.23-64.09s157.06,12.26,177.44,27.1S714.19-21.66,722.69,11.37s-4.95,113.35-30.46,157.46-142.82,58.95-188.31,71.41-118.31,23.86-178,6.73c-50.77-14.56-87.9-82.83-89.6-122-1.54-35.43,14.29-93.48,8.1-111.07C236.46-8.57,224.64-52.38,232.26-74A168.24,168.24,0,0,1,244-99.77C258.17-125,281.58-153.4,281.58-153.4Z" transform="translate(-77.25 227.59)"/><path class="cls-14" d="M277.62-151.09c6.86-3.16,160.09-73.06,198.73-65.74s155.15,8.9,175.26,23,59.94,167.68,69,200.58,2.37,116-23.54,160-143.41,54.4-190.62,69.63-116.71,30.08-177.63,13.52c-53-14.4-92.51-85.16-94-124.4-1.35-36,15.89-96.5,9.84-114.42-7.32-21.68-19.18-63.42-13.14-84.89A132.34,132.34,0,0,1,241.7-99.11C254.76-123.86,277.62-151.09,277.62-151.09Z" transform="translate(-77.25 227.59)"/><path class="cls-15" d="M273.66-148.79c6-2.77,162.93-74.31,201.24-67.39S628.14-210.64,648-197.25,708.91-30.63,718.6,2.14,728.3,120.76,702,164.61s-144,49.85-192.93,67.85S394,268.77,331.82,252.77c-55.17-14.21-97.11-87.5-98.36-126.85C232.3,89.43,250.94,26.4,245,8.14c-6.73-20.84-18.64-60.52-14.15-81.83a107.77,107.77,0,0,1,8.54-24.77C251.33-122.69,273.66-148.79,273.66-148.79Z" transform="translate(-77.25 227.59)"/><path class="cls-16" d="M269.71-146.48c5.14-2.37,165.76-75.56,203.74-69s151.32,2.18,170.91,14.84S706.27-35.11,716.56-2.47s17,121.26-9.69,165-144.6,45.3-195.24,66.07-113.5,42.56-176.84,27.1c-57.38-14-101.71-89.84-102.74-129.3-1-37,19.05-102.52,13.33-121.12-6.15-20-18.12-57.62-15.17-78.78a90.33,90.33,0,0,1,7-24.27C247.89-121.52,269.71-146.48,269.71-146.48Z" transform="translate(-77.25 227.59)"/><path class="cls-17" d="M265.75-144.17c4.29-2,168.6-76.82,206.25-70.68S621.41-216,640.73-204.11s62.9,164.51,73.78,197,24.33,123.89-2.77,167.48S566.55,201.14,514.2,224.68s-111.9,48.83-176.45,33.89c-59.59-13.79-106.31-92.17-107.12-131.75-0.77-37.53,20.6-105.52,15.07-124.48-5.59-19.16-17.64-54.71-16.18-75.72a77.71,77.71,0,0,1,5.37-23.76C244.42-120.36,265.75-144.17,265.75-144.17Z" transform="translate(-77.25 227.59)"/><path class="cls-18" d="M261.8-141.86c3.43-1.58,171.44-78.07,208.76-72.33s147.5-4.55,166.56,6.66S701-44.08,712.47-11.7s31.65,126.53,4.15,170-145.79,36.2-199.85,62.51-110.29,55.11-176.05,40.68c-61.79-13.55-110.91-94.51-111.5-134.2C228.65,89.21,251.35,18.75,246-.56c-5-18.31-17.18-51.79-17.19-72.66a68.57,68.57,0,0,1,3.78-23.26C240.94-119.21,261.8-141.86,261.8-141.86Z" transform="translate(-77.25 227.59)"/><path class="cls-19" d="M257.84-139.56c2.57-1.19,174.27-79.32,211.26-74s145.59-7.91,164.38,2.57,64.88,162.4,76.95,194.64,39,129.17,11.08,172.49S575.13,187.82,519.34,216.9s-108.68,61.39-175.66,47.47c-64-13.3-115.43-96.84-115.88-136.65-0.3-38.58,23.64-111.51,18.56-131.18-4.51-17.46-16.75-48.85-18.2-69.61-0.55-7.84,0-15.78,2.2-22.76C237.42-118.07,257.84-139.56,257.84-139.56Z" transform="translate(-77.25 227.59)"/><path class="cls-20" d="M253.88-137.25C255.6-138,431-217.82,467.65-212.88s143.68-11.28,162.2-1.52S695.72-53,708.38-20.94s46.29,131.81,18,175-147,27.1-204.47,58.95S414.84,280.7,346.66,267.27c-66.21-13-120-99.18-120.26-139.11C226.28,89.06,251.5,13.67,246.7-6.36c-4-16.62-16.33-45.88-19.21-66.55-1.1-7.92-1.13-15.66.61-22.26C233.86-116.92,253.88-137.25,253.88-137.25Z" transform="translate(-77.25 227.59)"/><path class="cls-21" d="M249.93-134.94c0.86-.4,179.94-81.83,216.27-77.28s141.76-14.64,160-5.6S693.09-57.53,706.34-25.55,759.95,108.89,731.26,152,583.7,174.5,524.49,209.12s-105.46,74-174.86,61.06C281.21,257.42,225,168.66,225,128.62,225,89,251.53,11.13,247-9.26,243.55-25,231.09-52.16,226.8-72.76c-1.66-8-2.27-15.54-1-21.76C230.25-115.78,249.93-134.94,249.93-134.94Z" transform="translate(-77.25 227.59)"/><path class="cls-22" d="M246-132.63s182.78-83.08,218.78-78.93,139.85-18,157.85-9.69S690.45-62,704.3-30.17s60.93,137.08,31.85,180-148.16,18-209.09,55.39-103.85,80.31-174.47,67.85-129.28-103.85-129-144S251.51,8.6,247.36-12.17s-26.81-60.93-23.79-81.7S246-132.63,246-132.63Z" transform="translate(-77.25 227.59)"/><path class="cls-23" d="M375.53,121.69S394.23-7.82,439.3,4.17,532.39-4.23,534.16-21s79.72-20.39,88.12,0S702.63-90.57,717-63s4.8,137,21.59,141.66,49.17,17.84,42,56.22-44.37,80.35-37.18,116.33,2.07,86.35-32.54,80.35-103.13,7.2-145.62,34.78-155,48-150.33,12,30.77-61.16-13.45-76.75S302.77,161.27,324,151.68s4.45-31.18,20-33.58,13.65,5,19.64,5.13,8.93,4.66,10.13,2.67A16.47,16.47,0,0,0,375.53,121.69Z" transform="translate(-77.25 227.59)"/><path class="cls-24" d="M442.11,0.57C489,9.45,538.25-9,540.87-23c2.83-15.16,75.6-17.73,83.94,2.51,8.26,20.06,76.13-63.17,90-36.22,14,27.31,5.54,131.35,21.73,136.82s46.56,18.6,40.49,54.67c-5.34,31.8-29,67.75-31.58,105a58.2,58.2,0,0,0,.58,13.17c6.14,39-.54,86.52-35.3,82.36-15.31-1.83-34.77-.19-54.34,3-29.33,4.83-68.4,16.49-93,31-13,7.65-32.81,12.21-54.1,17.48-44.94,11.14-99.18,14.49-96.73-9.76,3.46-34.25,27.73-58.86-14-75.61-42.34-17-93.66-137.91-72.32-148,20.72-9.77,5.79-30.91,21.16-33.83,15-2.84,13.51,3.72,19.46,3.51,5.8-.2,8.71,3.9,10,1.8a20.34,20.34,0,0,0,1.8-4.23c0.39-.6,2-10.27,5-23.76C391.77,60.7,407-6.09,442.11.57Z" transform="translate(-77.25 227.59)"/><path class="cls-25" d="M444.93-3c48.54,5.88,99.18-10.58,102.64-22,4-13.38,71.48-15.08,79.77,5,8.13,19.73,71.91-56.79,85.3-30.48,13.65,27,6.3,125.66,21.88,132s43.94,19.36,39,53.11c-4.34,29.71-21.81,64.9-25.16,106.45a67.62,67.62,0,0,0,.34,13.51c5,42.12-3.23,86.91-38.06,84.36-16.81-1.23-36.41,1.34-54.67,4.35-27.37,4.51-70.7,16.47-94.41,28.93-12.59,6.62-31.85,7.74-53,12.56-43.29,9.89-100,14.8-98.35-9.11,2.27-32.49,24.67-56.6-14.58-74.47-40.5-18.44-88.64-135.49-67.2-146,20.19-9.94,7.12-30.62,22.28-34.07,14.32-3.26,13.37,2.45,19.27,1.9,5.59-.53,8.5,3.14,9.86.93a24.67,24.67,0,0,0,1.89-4.26c0.78-1.2,2.6-10.83,5.64-23.93C395.7,60,407.38-7.57,444.93-3Z" transform="translate(-77.25 227.59)"/><path class="cls-26" d="M447.75-6.63c50.19,3,100.15-12.44,106.53-20.46,2.65-12.27,67.35-12.43,75.59,7.54,8,19.4,67.74-50.44,80.58-24.73,13.34,26.74,7.05,120,22,127.15S773.8,103,770,134.44c-3.33,27.66-14.62,62.05-18.73,107.93a79.07,79.07,0,0,0,.09,13.85c3.86,45.24-6,87.47-40.82,86.37-18.33-.58-38.05,2.87-55,5.66-25.42,4.19-73,16.45-95.8,26.87-12.23,5.59-30.89,3.27-51.84,7.64-41.61,8.66-100.86,15.13-100-8.46,1.15-30.71,21.6-54.4-15.15-73.33C354.09,281,309.16,167.89,330.69,156.85c19.68-10.09,8.44-30.32,23.4-34.32,13.68-3.66,13.21,1.2,19.09.28,5.37-.84,8.29,2.38,9.73.06a30.51,30.51,0,0,0,2-4.3c1.17-1.79,3.2-11.39,6.28-24.1C399.68,59.37,407.71-9,447.75-6.63Z" transform="translate(-77.25 227.59)"/><path class="cls-27" d="M450.56-10.22C502.3-7.39,553.06-24,561-29.11c2.94-10.76,63.23-9.77,71.42,10.05C640.28,0,695.94-63.12,708.26-38c13,26.46,7.81,114.33,22.17,122.31s38.7,20.95,36.06,50c-2.33,25.63-7.41,59.2-12.31,109.41a93.17,93.17,0,0,0-.15,14.18c2.62,48.38-8.73,88.17-43.58,88.38-19.87.12-39.69,4.4-55.34,7-23.46,3.87-75.42,16.42-97.2,24.8-11.89,4.57-29.91-1.18-50.71,2.71-39.93,7.47-101.68,15.51-101.61-7.81,0.09-28.89,18.52-52.26-15.71-72.19-36.89-21.48-78.58-130.63-57-142.18,19.16-10.24,9.75-30,24.52-34.57,13-4,13,0,18.9-1.34,5.15-1.13,8.08,1.62,9.59-.8a38.06,38.06,0,0,0,2.07-4.34c1.55-2.39,3.8-11.94,6.92-24.28C403.66,58.71,408.09-12.55,450.56-10.22Z" transform="translate(-77.25 227.59)"/><path class="cls-28" d="M453.38-13.82C506.8-16.39,558.23-29,567.69-31.13c3.23-9.26,59.1-7.12,67.24,12.56,7.74,18.74,59.33-37.69,71.13-13.23C718.7-5.61,714.63,76.87,728.39,85.68c13.93,8.92,36.09,21.77,34.58,48.46-1.34,23.65-.18,56.36-5.89,110.88a110.9,110.9,0,0,0-.39,14.52c1.33,51.52-11.5,89-46.34,90.38-21.41.86-41.33,5.93-55.68,8.3-21.51,3.54-77.87,16.38-98.59,22.73-11.59,3.55-28.93-5.62-49.59-2.21-38.22,6.31-102.48,15.91-103.23-7.16-0.88-27.05,15.45-50.19-16.28-71-35.11-23.08-73.55-128.18-51.83-140.25,18.66-10.37,11.05-29.67,25.64-34.82,12.39-4.38,12.88-1.27,18.72-3,4.92-1.41,7.87.86,9.46-1.67a47.92,47.92,0,0,0,2.16-4.37c1.94-3,4.4-12.5,7.56-24.45C407.65,58.05,408.32-11.65,453.38-13.82Z" transform="translate(-77.25 227.59)"/><path class="cls-29" d="M456.2-17.42c55-5.23,107.2-16.49,118.2-15.74,3.52-7.75,55-4.47,63.07,15.08,7.61,18.41,55.12-31.31,66.41-7.48,12.28,25.91,9.31,103,22.47,112.64,13.36,9.78,33.48,22.63,33.1,46.91-0.34,21.71,7.07,53.51.53,112.36a133.73,133.73,0,0,0-.64,14.86c0,54.67-14.27,89.88-49.09,92.39-23,1.66-43,7.47-56,9.62-19.55,3.22-80.38,16.3-100,20.67-11.33,2.52-27.94-10.05-48.46-7.13-36.51,5.2-103.25,16.35-104.86-6.51C399.15,345,413.32,322,384.08,300.33,350.76,275.57,315.58,174.61,337.37,162c18.15-10.48,12.36-29.31,26.75-35.07,11.75-4.7,12.7-2.49,18.53-4.57,4.7-1.68,7.65.1,9.32-2.54,1.17-1.84,1.87-3.82,2.26-4.41,2.33-3.59,5-13.05,8.19-24.62C411.64,57.39,408.62-12.9,456.2-17.42Z" transform="translate(-77.25 227.59)"/><path class="cls-30" d="M459-21c56.65-7.84,109.55-17.84,122.09-14.17C584.92-41.42,632-37,640-17.59c7.48,18.08,50.9-24.93,61.69-1.73C713.6,6.31,711.75,78,724.3,88.48c12.78,10.65,30.89,23.53,31.62,45.36,0.66,19.85,14.33,50.67,7,113.83-0.61,5.25-.76,10.32-0.88,15.2-1.42,57.82-17,90.85-51.85,94.4-24.5,2.5-44.61,9-56.35,10.93-17.6,2.9-83,16.15-101.38,18.6-11.11,1.48-26.94-14.47-47.33-12.06-34.78,4.12-104,16.81-106.49-5.86-2.58-23.31,9.35-46.27-17.41-68.76-31.53-26.51-63.46-123.26-41.59-136.38,17.66-10.59,13.66-28.92,27.87-35.31,11.12-5,12.53-3.69,18.35-6.18,4.47-1.92,7.44-.66,9.19-3.41,1.16-1.82,1.9-3.75,2.35-4.44,2.72-4.18,5.62-13.61,8.83-24.79C415.64,56.73,408.93-14.09,459-21Z" transform="translate(-77.25 227.59)"/><path class="cls-31" d="M461.83-24.61c58.28-10.4,111.9-19.19,126-12.59,4.11-4.74,46.73.84,54.72,20.1,7.35,17.75,46.69-18.55,57,4,11.55,25.36,10.81,91.7,22.76,103,12.21,11.52,28.35,24.48,30.14,43.8C754.07,151.75,774,181.52,765.78,249c-0.66,5.38-.89,10.57-1.12,15.54-2.87,61-19.8,91.88-54.61,96.4-26,3.38-46.25,10.53-56.68,12.25-15.64,2.58-85.6,15.91-102.77,16.53-10.94.4-25.94-18.87-46.2-17-33,3.08-104.66,17.3-108.11-5.21-3.29-21.43,6.35-44.42-18-67.62-29.7-28.33-58.41-120.78-36.47-134.45,17.16-10.69,15-28.51,29-35.56,10.48-5.27,12.37-4.87,18.16-7.8,4.26-2.15,7.22-1.42,9.06-4.27,1.15-1.79,1.93-3.69,2.44-4.48,3.11-4.78,6.23-14.16,9.47-25C419.64,56.08,409.25-15.24,461.83-24.61Z" transform="translate(-77.25 227.59)"/><path class="cls-32" d="M464.65-28.21c59.93-12.92,114.26-20.54,129.87-11,4.4-3.23,42.61,3.5,50.54,22.62,7.22,17.42,42.47-12.17,52.24,9.77,11.18,25.09,11.56,86,22.9,98.13,11.63,12.39,29.34,25.27,28.66,42.25,6,15.5,28.92,45,19.8,116.79-0.7,5.51-1,10.81-1.37,15.88-4.37,64.1-22.54,93-57.37,98.41-27.56,4.32-47.89,12.06-57,13.57-13.69,2.26-88.29,15.56-104.17,14.47-10.8-.74-24.93-23.24-45.07-21.9-31.29,2.08-105.27,17.79-109.74-4.56-3.9-19.53,3.4-42.63-18.54-66.48C347.58,269.47,322,181.42,344.05,167.19c16.68-10.78,16.3-28.07,30.11-35.81,9.86-5.52,12.21-6,18-9.41,4-2.37,7-2.18,8.92-5.14,1.15-1.77,2-3.63,2.53-4.51,3.5-5.38,6.84-14.71,10.11-25.14C423.65,55.42,409.59-16.34,464.65-28.21Z" transform="translate(-77.25 227.59)"/><path class="cls-33" d="M467.46-31.81c61.59-15.41,116.61-21.89,133.76-9.44,4.69-1.72,38.48,6.15,46.37,25.13C654.69,1,685.84-21.9,695.12-.6c10.81,24.82,12.31,80.4,23.05,93.29,11.05,13.26,27.13,26.1,27.18,40.7,7.36,13.46,36.23,42.16,26.22,118.26-0.74,5.64-1.16,11.05-1.61,16.22-5.91,67.23-25.27,94.07-60.13,100.42-29.07,5.29-49.53,13.59-57.35,14.88-11.73,1.93-91,15.08-105.56,12.4C536.25,393.61,523,368,503,368.75c-29.54,1.13-105.8,18.29-111.37-3.91-4.42-17.65.51-40.9-19.11-65.34-25.85-32.21-48.29-115.79-26.22-130.59,16.19-10.86,17.64-27.6,31.23-36.06,9.25-5.76,12.07-7.18,17.79-11,3.84-2.59,6.79-2.95,8.79-6,1.14-1.74,2-3.57,2.62-4.55,3.89-6,7.45-15.27,10.74-25.31C427.67,54.77,409.94-17.42,467.46-31.81Z" transform="translate(-77.25 227.59)"/><path class="cls-34" d="M470.28-35.41c63.28-17.87,119-23.24,137.65-7.87,5-.21,34.36,8.8,42.19,27.64,7,16.75,34,.6,42.8,21.27,10.44,24.55,13,74.75,23.2,88.45,10.47,14.14,24.93,26.92,25.7,39.15,8.73,11.42,43.55,39.32,32.65,119.74-0.78,5.77-1.29,11.3-1.86,16.56-7.49,70.35-28,95.21-62.88,102.42-30.57,6.32-51.17,15.13-57.69,16.2-9.78,1.61-93.67,14.47-107,10.33-10.52-3.27-22.91-31.91-42.82-31.75-27.78.23-106.23,18.77-113-3.25-4.85-15.79-2.31-39.21-19.67-64.2-23.79-34.24-43.22-113.27-21.1-128.65,15.72-10.93,19-27.1,32.35-36.31,8.66-6,11.94-8.31,17.61-12.65,3.65-2.79,6.58-3.71,8.66-6.87,1.13-1.72,2-3.5,2.71-4.58,4.28-6.58,8.07-15.82,11.38-25.49C431.7,54.12,410.31-18.47,470.28-35.41Z" transform="translate(-77.25 227.59)"/><path class="cls-35" d="M473.1-39c65-20.32,121.31-24.58,141.54-6.3,5.27,1.29,30.24,11.46,38,30.16,6.83,16.42,29.78,7,38.08,27C700.8,36.16,704.52,81,714.08,95.49c9.88,15,22.73,27.75,24.22,37.6,10.1,9.37,50.89,36.49,39.07,121.22-0.82,5.9-1.43,11.54-2.1,16.9-9.1,73.45-30.68,96.38-65.64,104.43-32,7.38-52.81,16.66-58,17.52-7.82,1.29-96.27,13.76-108.35,8.27-10.3-4.68-21.9-36.19-41.69-36.67-26-.63-106.52,19.2-114.62-2.6-5.18-14-5.06-37.55-20.24-63.06-21.61-36.32-38.13-110.74-16-126.72,15.25-11,20.4-26.58,33.47-36.55,8.08-6.17,11.83-9.43,17.42-14.26,3.46-3,6.36-4.47,8.52-7.74,1.12-1.7,2-3.44,2.8-4.62,4.66-7.17,8.69-16.37,12-25.66C435.74,53.47,410.7-19.49,473.1-39Z" transform="translate(-77.25 227.59)"/><path class="cls-36" d="M475.91-42.6C542.61-65.35,596.59-65,621.35-47.32c5.07,3.62,26.11,14.11,33.84,32.67,6.7,16.09,25.55,13.38,33.36,32.77,9.67,24,14.52,63.45,23.49,78.78,9.29,15.89,20.52,28.58,22.74,36,11.48,7.33,58.24,33.66,45.49,122.69-0.86,6-1.58,11.78-2.34,17.24-10.75,76.55-33.35,97.57-68.4,106.44-33.51,8.48-54.45,18.19-58.36,18.83-5.87,1-98.76,13-109.75,6.2-10-6.18-20.89-40.43-40.56-41.6-24.29-1.44-106.64,19.53-116.24-2-5.44-12.17-7.73-35.89-20.81-61.92-19.3-38.42-33-108.2-10.85-124.79,14.79-11.06,21.82-26,34.59-36.8,7.52-6.35,11.74-10.55,17.24-15.88,3.29-3.18,6.14-5.24,8.39-8.61,1.11-1.67,2.06-3.38,2.89-4.65a135.68,135.68,0,0,0,12.66-25.83C439.78,52.83,411.1-20.49,475.91-42.6Z" transform="translate(-77.25 227.59)"/><path class="cls-37" d="M478.73-46.2c68.44-25.17,124.06-25.23,149.32-3.15,5.47,4.78,22,16.76,29.67,35.18C664.29,1.6,679,5.6,686.36,24.35c9.28,23.76,15.23,57.82,23.64,73.94,8.67,16.78,18.32,29.4,21.27,34.49,12.85,5.29,65.6,30.83,51.91,124.17-0.9,6.16-1.72,12-2.59,17.58-12.43,79.64-36,98.77-71.16,108.44-35,9.61-56.09,19.72-58.7,20.15-3.91.64-101.13,12.21-111.14,4.13-9.57-7.72-19.9-44.61-39.43-46.52-22.56-2.2-106.54,19.71-117.87-1.3C376.65,349,372,325.23,360.92,298.67,344.06,258.15,333,193,355.19,175.81c14.33-11.11,23.29-25.44,35.71-37,7-6.53,11.66-11.65,17.05-17.49,3.12-3.38,5.92-6,8.25-9.48,1.11-1.65,2.09-3.31,3-4.69a147.21,147.21,0,0,0,13.3-26C443.84,52.19,411.52-21.48,478.73-46.2Z" transform="translate(-77.25 227.59)"/><path class="cls-38" d="M481.55-49.8C551.74-77.38,609-77.53,634.76-51.37c5.94,6,17.86,19.42,25.49,37.69,6.44,15.43,17,26.17,23.91,44.27C693,54.1,700.14,82.75,708,99.7c8.09,17.64,16.12,30.23,19.79,32.94,14.22,3.24,73.07,28,58.34,125.64-0.94,6.29-1.86,12.26-2.83,17.92-14.15,82.71-38.65,100-73.92,110.45-36.38,10.79-57.73,21.25-59,21.47-2,.32-103.38,11.47-112.53,2.07s-18.93-48.73-38.3-51.44c-20.86-2.92-106.18,19.64-119.5-.65-5.8-8.84-12.84-32.51-21.94-59.64-14.28-42.6-22.81-103.08-.61-120.93,13.88-11.16,24.81-24.83,36.83-37.3,6.46-6.71,11.61-12.76,16.87-19.11,3-3.58,5.7-6.77,8.12-10.34,1.09-1.63,2.12-3.25,3.08-4.73a162.77,162.77,0,0,0,13.93-26.18C447.9,51.56,412-22.45,481.55-49.8Z" transform="translate(-77.25 227.59)"/><path class="cls-39" d="M649.86,413.11s-105.53,10.79-113.93,0-18-52.77-37.18-56.36-105.53,19.19-121.12,0-54-147.51-18-177.49S428,106.4,440,78.67,412.41-23.41,484.36-53.4s130.72-30,157.1,0,67.16,184.68,82.75,185.88S804.56,157.67,789,259.61s-42,118.73-79.75,130.72S649.86,413.11,649.86,413.11Z" transform="translate(-77.25 227.59)"/><path class="cls-23" d="M143.54,341.82c-19.22-21-62.91-110.1-41.94-143.31s10.16-97.87,18.19-125.83S161-30.42,187.23-30.42,288.3-53.74,308.54-68.3s58.52-56.5,100.55-39,131.76,134.57,150.69,152,62.5,78.64,55.57,94.37-43.63,145.05-34.89,167.77,30.11,171.27-48.73,192.24-163.39,36.7-221.61-14-49.76-68.39-105.54-87.5-57.09-26.53-58-36.14A186.75,186.75,0,0,0,143.54,341.82Z" transform="translate(-77.25 227.59)"/><path class="cls-40" d="M187.57-34.72c26.17,0.05,100.08-22.05,120.79-35.51,3.21-2.1,6.79-4.86,10.75-7.88,21.57-16.45,53.43-40.71,88.64-26.47C436.5-93,489.7-30.31,524.56,9.49c16.09,18.45,29.74,34.09,36.75,40.45,20.21,18.47,64.32,79.29,57.63,95.38C612.37,161.11,577.35,285.76,585.3,309,593.39,332.6,613,476.14,537,496.43c-43.68,11.74-90.66,20.11-132.74,18.38-33.53-1.27-64.21-10.77-90.08-31-30.51-23.87-43.37-37.75-56.57-50.41-8.71-8.36-17.93-14.87-31.09-21.63a155.67,155.67,0,0,0-20.57-9c-53.12-18.2-56.94-26.44-58.82-37.24-1.64-9.38-3.52-19.34-3.79-19.65-6.24-7.1-14.8-20.18-22.23-36-16.88-36-30.95-86.93-17.54-109.94,11.08-19,10-49.11,10.51-75.72,0.38-20.17.32-39.94,4-52.87a209.71,209.71,0,0,1,9.83-26.54C142.22,12,167.1-34.79,187.57-34.72Z" transform="translate(-77.25 227.59)"/><path class="cls-41" d="M187.91-39C214-38.92,287-59.74,308.17-72.18c3.27-1.93,6.84-4.52,10.77-7.28,21.62-15.2,52.48-36,87.45-22.4C435.18-90.62,490.73-23.7,524.91,14.58,540.66,32.21,554.84,48,562.84,55.16c21.54,19.4,66.15,79.92,59.7,96.38-6.21,15.84-39.56,135.83-32.38,159.54,7.43,24.54,25.38,163.05-47.83,182.66C499.1,505.49,451.07,512,409,510.95c-33.94-.85-64.56-10.3-90.7-28.48-30.71-21.35-44.23-31.67-58-43.63-9.29-8.1-19.39-14.22-32.28-21.2-6.1-3.3-13.44-7.35-20.69-9.84-50.47-17.29-56.73-26.26-59.68-38.33-2.23-9.14-4-19-4.52-19.63-6.67-7.61-15.37-20.88-22.25-36.72-15.9-36.62-27.68-88.84-15.35-111.92,10.26-19.21,6.53-50.45,6.77-77,0.23-20,.17-40.56,4-54.31a184.08,184.08,0,0,1,10.26-27.17C141.5,10.43,167-39.15,187.91-39Z" transform="translate(-77.25 227.59)"/><path class="cls-42" d="M188.25-43.33C214.32-43.16,286.41-62.75,308-74.12c3.33-1.76,6.89-4.18,10.79-6.69,21.69-13.95,51.56-31.42,86.27-18.32,28.83,10.88,86.67,82.07,120.23,118.79,15.39,16.84,30.09,32.69,39.09,40.72,22.84,20.37,68,80.56,61.77,97.39C620.27,173.66,588.59,289,595,313.2c6.76,25.46,23,158.76-47.37,177.87-42.81,11.63-91.86,16.47-133.94,16a176.66,176.66,0,0,1-91.31-25.94c-30.88-18.83-45.11-25.58-59.34-36.85-9.88-7.83-20.85-13.6-33.46-20.78-6.27-3.57-13.93-8.28-20.8-10.63-47.81-16.38-56.45-26-60.54-39.43-2.71-8.89-4.45-18.69-5.26-19.62-7.09-8.12-15.93-21.6-22.27-37.42-14.91-37.25-24.42-90.75-13.16-113.89,9.44-19.42,3-51.8,3-78.37,0.09-19.84,0-41.17,4-55.74a163.88,163.88,0,0,1,10.69-27.79C140.74,8.86,166.93-43.52,188.25-43.33Z" transform="translate(-77.25 227.59)"/><path class="cls-43" d="M188.58-47.63c26,0.22,97.19-18.12,119.21-28.43,3.38-1.58,6.94-3.83,10.81-6.09C340.38-94.85,369.24-109,403.7-96.4c28.88,10.52,89,86,121.93,121.15,15,16.05,30.26,32,40.26,40.85C590,87,635.67,146.79,629.72,164c-5.51,15.94-35.54,126.65-29.87,151.31,6.07,26.4,20.58,154.6-46.92,173.08-42.36,11.6-92.47,14.7-134.53,14.84-34.79.11-65.22-9.36-91.93-23.41-31-16.32-46-19.47-60.73-30.07-10.49-7.56-22.29-13-34.65-20.35-6.44-3.83-14.43-9.2-20.92-11.43-45.16-15.47-56.11-25.79-61.39-40.52-3.11-8.65-4.91-18.37-6-19.61a127.35,127.35,0,0,1-22.28-38.12c-13.91-37.9-21.17-92.67-11-115.87,8.62-19.63-.56-53.14-0.7-79.69-0.1-19.68-.12-41.78,4-57.17a148.72,148.72,0,0,1,11.12-28.42C140,7.29,166.85-47.88,188.58-47.63Z" transform="translate(-77.25 227.59)"/><path class="cls-44" d="M188.92-51.93c26,0.27,96.21-16.83,118.69-26.07,3.44-1.41,7-3.49,10.83-5.49,21.88-11.44,49.72-22.18,83.9-10.17C431.27-83.5,493.69-3.76,526,29.84c14.67,15.26,30.42,31.31,41.43,41,25.42,22.34,71.59,81.81,65.9,99.4-5.17,16-33.55,122.07-28.61,147.19,5.38,27.34,18.2,150.44-46.47,168.3-41.92,11.57-93.08,12.94-135.13,13.66-35.22.6-65.52-8.9-92.55-20.87-31.16-13.8-47-13.34-62.12-23.29-11.11-7.29-23.73-12.4-35.84-19.92-6.61-4.11-14.92-10.13-21-12.22-42.5-14.56-55.7-25.55-62.25-41.62-3.44-8.43-5.38-18-6.72-19.59A119.38,119.38,0,0,1,120.3,323c-12.89-38.56-17.92-94.61-8.79-117.84,7.8-19.85-4.09-54.49-4.44-81-0.26-19.51-.27-42.4,4-58.61a137,137,0,0,1,11.55-29C139.18,5.71,166.77-52.25,188.92-51.93Z" transform="translate(-77.25 227.59)"/><path class="cls-45" d="M189.26-56.24C215.19-55.91,284.49-71.77,307.42-80c3.49-1.25,7.05-3.14,10.85-4.9,22-10.18,48.8-17.57,82.72-6.09,29,9.8,93.67,93.83,125.35,125.86,14.31,14.47,30.58,30.62,42.6,41.12,26.7,23.33,73.39,82.44,68,100.41-4.83,16-31.57,117.5-27.35,143.08,4.67,28.29,15.82,146.3-46,163.51-41.48,11.54-93.68,11.18-135.73,12.47-35.64,1.09-65.79-8.44-93.17-18.34-31.26-11.31-47.9-7.21-63.5-16.51-11.75-7-25.16-11.82-37-19.5-6.77-4.39-15.42-11-21.15-13-39.84-13.65-55.24-25.33-63.11-42.71-3.72-8.22-5.85-17.72-7.46-19.58-8.36-9.65-17.57-23.77-22.32-39.51-11.85-39.24-14.68-96.55-6.6-119.81,7-20.07-7.61-55.83-8.17-82.34-0.41-19.35-.41-43,4-60a127.58,127.58,0,0,1,12-29.67C138.4,4.14,166.69-56.61,189.26-56.24Z" transform="translate(-77.25 227.59)"/><path class="cls-46" d="M189.6-60.54c25.88,0.44,94.24-14.25,117.64-21.35,3.55-1.08,7.12-2.79,10.87-4.3,22.16-8.91,47.88-13,81.54-2,29,9.44,96,97.75,127.06,128.22,13.94,13.68,30.75,29.93,43.77,41.25,28,24.32,75.19,83.06,70,101.41-4.51,16-29.61,112.93-26.1,139,3.95,29.24,13.45,142.16-45.56,158.72-41,11.52-94.29,9.43-136.33,11.29-36.07,1.59-66-8-93.78-15.81-31.34-8.83-48.86-1.05-64.89-9.73-12.39-6.71-26.59-11.25-38.21-19.07-6.94-4.67-15.92-12-21.26-13.8-37.19-12.74-54.71-25.12-64-43.81-4-8-6.31-17.4-8.19-19.57-8.78-10.16-18.09-24.51-22.33-40.2-10.8-39.93-11.45-98.49-4.41-121.79,6.13-20.3-11.14-57.18-11.91-83.67-0.56-19.18-.56-43.62,4-61.47A120,120,0,0,1,120,32.43C137.61,2.56,166.61-60.93,189.6-60.54Z" transform="translate(-77.25 227.59)"/><path class="cls-47" d="M189.93-64.84c25.83,0.49,93.25-13,117.12-19,3.6-.91,7.18-2.44,10.89-3.71,22.33-7.62,47-8.36,80.36,2.06,29.07,9.07,98.31,101.67,128.76,130.58C540.64,58,558,74.34,572,86.48c29.27,25.32,77,83.67,72.1,102.42-4.19,16.08-27.66,108.36-24.84,134.84,3.22,30.19,11.07,138-45.11,153.93-40.59,11.49-94.9,7.69-136.93,10.11-36.5,2.1-66.28-7.57-94.4-13.27-31.39-6.37-49.83,5.12-66.28-2.95-13-6.4-28-10.69-39.4-18.65-7.1-5-16.41-12.9-21.38-14.6-34.53-11.83-54.13-24.95-64.82-44.9-4.2-7.84-6.78-17.07-8.92-19.55-9.21-10.67-18.61-25.25-22.35-40.9-9.72-40.63-8.22-100.45-2.23-123.76,5.28-20.54-14.66-58.52-15.65-85-0.71-19-.71-44.24,4-62.91a113.64,113.64,0,0,1,12.83-30.92C136.82,1,166.53-65.29,189.93-64.84Z" transform="translate(-77.25 227.59)"/><path class="cls-48" d="M190.27-69.14c25.78,0.55,92.26-11.69,116.59-16.63,3.65-.74,7.25-2.08,10.91-3.11,22.52-6.32,46.05-3.76,79.17,6.14,29.12,8.7,100.63,105.59,130.47,132.93,13.21,12.1,31.07,28.56,46.1,41.51C604.07,118,652.29,176,647.69,195.12c-3.87,16.11-25.72,103.8-23.58,130.73,2.47,31.15,8.7,133.9-44.65,149.14-40.14,11.47-95.51,6-137.52,8.93-36.92,2.61-66.5-7.17-95-10.74-31.43-3.94-50.82,11.31-67.67,3.83-13.7-6.08-29.43-10.14-40.58-18.22-7.26-5.26-16.91-13.82-21.49-15.39-31.87-10.92-53.48-24.81-65.68-46-4.41-7.67-7.25-16.75-9.66-19.54-9.63-11.18-19.11-26-22.37-41.59-8.63-41.34-5-102.4,0-125.73,4.43-20.78-18.18-59.87-19.38-86.32-0.85-18.85-.85-44.85,4.06-64.34a108.35,108.35,0,0,1,13.26-31.54C136-.61,166.45-69.65,190.27-69.14Z" transform="translate(-77.25 227.59)"/><path class="cls-49" d="M190.61-73.45c25.74,0.6,91.26-10.42,116.07-14.27,3.71-.58,7.33-1.72,10.93-2.51,22.73-5,45.14.84,78,10.21C424.78-71.7,498.54,29.5,527.78,55.27,540.62,66.58,559,83.14,575.05,96.91c31.82,27.31,80.54,84.9,76.23,104.43C647.73,217.48,627.5,300.57,629,328c1.71,32.1,6.33,129.78-44.2,144.35-39.7,11.45-96.12,4.23-138.12,7.75-37.35,3.13-66.72-6.79-95.63-8.21-31.47-1.54-51.8,17.51-69.05,10.61-14.36-5.75-30.84-9.6-41.77-17.79-7.42-5.56-17.41-14.74-21.61-16.18-29.22-10-52.79-24.72-66.54-47.09-4.61-7.5-7.72-16.42-10.39-19.53-10.05-11.69-19.61-26.75-22.39-42.29-7.51-42.06-1.81-104.37,2.15-127.71,3.57-21-21.7-61.21-23.12-87.65-1-18.69-1-45.46,4.07-65.77,2.78-11.17,7.37-22.78,13.69-32.17C135.22-2.19,166.37-74,190.61-73.45Z" transform="translate(-77.25 227.59)"/><path class="cls-50" d="M190.95-77.75c25.69,0.66,90.27-9.16,115.55-11.91,3.76-.41,7.4-1.36,11-1.92,23-3.63,44.23,5.43,76.81,14.29C423.48-69.34,499.5,36.16,528.14,60.35c12.46,10.53,31.39,27.19,48.44,41.78,33.1,28.31,82.31,85.51,78.3,105.43-3.26,16.17-21.86,94.66-21.07,122.49,0.94,33.06,4,125.66-43.75,139.56-39.25,11.43-96.73,2.51-138.72,6.57-37.77,3.65-66.93-6.45-96.25-5.67-31.5.83-52.8,23.73-70.44,17.39-15-5.4-32.24-9.06-43-17.37-7.57-5.86-17.9-15.67-21.72-17-26.56-9.1-52-24.67-67.4-48.18-4.8-7.35-8.19-16.09-11.12-19.52-10.48-12.2-20.1-27.5-22.4-43-6.36-42.78,1.38-106.33,4.34-129.68,2.69-21.27-25.22-62.56-26.86-89-1.15-18.52-1.14-46.08,4.08-67.21,2.87-11.63,7.59-23.49,14.12-32.79C134.41-3.78,166.29-78.38,190.95-77.75Z" transform="translate(-77.25 227.59)"/><path class="cls-51" d="M191.28-82.05c25.64,0.71,89.27-7.9,115-9.55,3.81-.25,7.48-1,11-1.32,23.18-2.24,43.32,10,75.62,18.36C422.19-67,500.45,42.82,528.5,65.44c12.09,9.75,31.55,26.51,49.61,41.91,34.38,29.31,84.08,86.12,80.37,106.44-3,16.2-19.95,90.1-19.81,118.38,0.17,34,1.6,121.56-43.29,134.77-38.8,11.42-97.33.79-139.32,5.39-38.2,4.18-67.15-6.13-96.87-3.14-31.53,3.17-53.79,30-71.83,24.17-15.7-5-33.64-8.54-44.14-16.94-7.71-6.17-18.4-16.59-21.83-17.77-23.91-8.19-51.23-24.66-68.25-49.28-5-7.21-8.65-15.77-11.86-19.5-10.9-12.71-20.58-28.25-22.42-43.68-5.19-43.5,4.56-108.29,6.52-131.65,1.81-21.52-28.74-63.9-30.59-90.3-1.29-18.35-1.29-46.69,4.09-68.64,3-12.09,7.8-24.2,14.55-33.42C133.6-5.37,166.21-82.74,191.28-82.05Z" transform="translate(-77.25 227.59)"/><path class="cls-52" d="M191.62-86.35c25.59,0.76,88.28-6.64,114.5-7.19,3.86-.08,7.57-1,11-0.73,23.34,2,42.41,14.6,74.44,22.44C420.9-64.65,501.39,49.49,528.85,70.53c11.71,9,31.7,25.83,50.78,42,35.65,30.31,85.83,86.73,82.43,107.44-2.66,16.23-18,85.53-18.55,114.26-0.62,35-.77,117.46-42.84,130-38.35,11.42-97.94-.92-139.91,4.21-38.62,4.71-67.37-5.83-97.48-.61-31.58,5.48-54.79,36.21-73.22,31-16.37-4.67-35-8-45.33-16.52-7.86-6.49-18.89-17.51-21.95-18.56-21.25-7.28-50.38-24.7-69.11-50.37-5.16-7.08-9.12-15.44-12.59-19.49-11.32-13.22-21-29-22.44-44.37-4-44.23,7.73-110.26,8.71-133.63,0.92-21.76-32.25-65.25-34.33-91.62-1.43-18.19-1.44-47.3,4.11-70.08,3.05-12.55,8-24.91,15-34C132.78-7,166.13-87.11,191.62-86.35Z" transform="translate(-77.25 227.59)"/><path class="cls-53" d="M192-90.66c25.55,0.76,87.29-5.4,114-4.83,3.92,0.08,7.66-.61,11-0.13,23.41,3.33,41.5,19.18,73.26,26.52,29.4,6.79,112.12,125.27,139,144.71,11.33,8.19,31.83,25.18,52,42.18,36.87,31.37,87.58,87.34,84.5,108.45-2.37,16.25-16.14,81-17.3,110.15-1.42,35.92-3.13,113.37-42.39,125.2-37.9,11.42-98.54-2.62-140.51,3-39,5.25-67.62-5.56-98.1,1.93-31.64,7.77-55.78,42.47-74.6,37.73-17-4.29-36.42-7.49-46.52-16.09-8-6.81-19.39-18.44-22.06-19.35-18.59-6.37-49.49-24.8-70-51.47-5.34-7-9.59-15.11-13.32-19.48-11.75-13.73-21.51-29.75-22.45-45.07-2.77-44.95,10.88-112.22,10.9-135.6,0-22-35.76-66.59-38.07-93-1.57-18-1.58-47.92,4.12-71.51,3.14-13,8.22-25.62,15.41-34.66C132-8.56,166-91.53,192-90.66Z" transform="translate(-77.25 227.59)"/><path class="cls-54" d="M192.29-95c25.5,0.82,86.3-4.15,113.45-2.47,4,0.24,7.71.16,11,.47,23.85,2.17,40.6,23.76,72.07,30.59C418.32-60,503.26,62.85,529.57,80.7c10.94,7.42,32,24.49,53.12,42.31,38.15,32.37,89.33,88,86.57,109.45-2.09,16.28-14.25,76.38-16,106-2.23,36.86-5.49,109.29-41.94,120.41-37.45,11.42-99.15-4.32-141.11,1.84-39.47,5.8-67.88-5.31-98.72,4.46-31.72,10-56.77,48.73-76,44.51-17.71-3.89-37.81-7-47.7-15.66-8.13-7.13-19.89-19.36-22.18-20.15C209.65,468.44,177,449,154.76,421.34c-5.52-6.84-10.06-14.79-14.06-19.46-12.17-14.24-22-30.5-22.47-45.76-1.51-45.67,14-114.18,13.09-137.57-0.9-22.25-39.27-67.94-41.8-94.28-1.72-17.86-1.73-48.53,4.13-72.94C96.88,37.85,102.08,25,109.48,16,131.15-10.17,166-95.89,192.29-95Z" transform="translate(-77.25 227.59)"/><path class="cls-55" d="M192.63-99.26c25.45,0.87,85.31-2.91,112.93-.11,4,0.41,7.78.56,11.06,1.06,24,3.71,39.69,28.33,70.89,34.67,29.52,6,116.67,133.2,142.42,149.43,10.55,6.65,32.15,23.81,54.29,42.44,39.43,33.36,91.06,88.56,88.63,110.46C671,255,660.49,310.49,658.07,340.6c-3,37.81-7.85,105.22-41.48,115.62-37,11.44-99.75-6-141.71.66-39.89,6.35-68.16-5.07-99.34,7-31.82,12.31-57.76,55-77.38,51.29-18.38-3.48-39.19-6.46-48.89-15.24C241,492.46,228.89,479.64,227,479c-13.28-4.55-47.57-25.13-71.68-53.66-5.69-6.73-10.53-14.46-14.79-19.45-12.59-14.75-22.41-31.25-22.49-46.46C117.79,313,135.19,243.29,133.3,219.88c-1.82-22.49-42.78-69.28-45.54-95.6C85.9,106.58,85.88,75.13,91.9,49.9c3.32-13.93,8.64-27,16.27-35.91C130.32-11.77,165.89-100.26,192.63-99.26Z" transform="translate(-77.25 227.59)"/><path class="cls-56" d="M193-103.56c25.4,0.93,84.32-1.67,112.4,2.24,4.08,0.57,7.85,1,11.08,1.66,24.22,5.29,38.78,32.9,69.71,38.74C415.74-55.32,505.09,76.26,530.29,90.87c10.16,5.89,32.31,23.12,55.46,42.57,40.72,34.35,92.79,89.17,90.7,111.47-1.53,16.34-10.48,67.23-13.53,97.8-3.87,38.75-10.2,101.15-41,110.83-36.53,11.47-100.35-7.7-142.3-.52-40.31,6.9-68.45-4.84-100,9.53-31.94,14.57-58.74,61.3-78.77,58.07-19-3.07-40.56-6-50.08-14.81-8.37-7.8-20.88-21.21-22.41-21.73-10.62-3.64-46.56-25.38-72.54-54.75-5.87-6.64-11-14.12-15.52-19.44-13-15.24-22.85-32-22.51-47.15,1.07-47.09,20.3-118.09,17.46-141.52C132.52,198.49,89,150.58,86,124.28c-2-17.53-2-49.76,4.16-75.81,3.41-14.39,8.84-27.76,16.7-36.54C129.49-13.38,165.81-104.62,193-103.56Z" transform="translate(-77.25 227.59)"/><path class="cls-57" d="M193.31-107.86c25.35,1,83.34-.44,111.88,4.6,4.13,0.73,7.91,1.35,11.1,2.25,24.36,6.9,37.88,37.46,68.52,42.82C414.45-53,506,83,530.64,96c9.76,5.13,32.47,22.44,56.63,42.7,42,35.34,94.52,89.78,92.77,112.47-1.26,16.36-8.6,62.65-12.27,93.68-4.7,39.69-12.55,97.1-40.58,106-36.07,11.51-100.95-9.39-142.9-1.7-40.72,7.46-68.77-4.61-100.57,12.06C351.64,478,324,528.8,303.57,526.07c-19.71-2.64-41.93-5.45-51.26-14.38-8.49-8.13-21.38-22.13-22.52-22.52-8-2.73-45.51-25.68-73.4-55.85-6-6.54-11.48-13.8-16.26-19.42-13.46-15.76-23.28-32.73-22.52-47.85C120,318.26,141,246,137.26,222.55c-3.69-22.95-49.74-72-53-98.25-2.09-17.37-2.17-50.37,4.17-77.24,3.5-14.85,9-28.47,17.12-37.16C128.66-15,165.73-109,193.31-107.86Z" transform="translate(-77.25 227.59)"/><path class="cls-58" d="M193.64-112.17c25.31,1,82.36.8,111.35,7a95.27,95.27,0,0,1,11.12,2.85c24.46,8.54,37,42,67.34,46.9C413.16-50.68,506.9,89.75,531,101c9.37,4.39,32.63,21.75,57.8,42.84,43.28,36.34,96.23,90.4,94.83,113.48-1,16.39-6.72,58.07-11,89.57-5.53,40.62-14.9,93.05-40.12,101.25C596.9,459.75,531,437.1,489,445.29c-41.14,8-69.11-4.39-101.19,14.59-32.24,19.07-60.7,73.89-81.54,71.63-20.37-2.2-43.3-4.94-52.45-14-8.6-8.48-21.87-23.06-22.64-23.32-5.31-1.82-44.43-26-74.26-56.94-6.23-6.46-11.94-13.47-17-19.41-13.88-16.27-23.71-33.47-22.54-48.54,3.76-48.47,26.55-122,21.84-145.47C134.6,200.71,86,150.56,82.49,124.3c-2.24-17.2-2.32-51,4.18-78.68,3.59-15.32,9.25-29.19,17.55-37.79C127.83-16.61,165.64-113.35,193.64-112.17Z" transform="translate(-77.25 227.59)"/><path class="cls-59" d="M194-116.47c25.26,1.09,81.39,2,110.83,9.32A79.28,79.28,0,0,1,316-103.7c24.54,10.19,36.07,46.52,66.16,51,29.76,4.31,125.69,149.26,149.25,158.85,9,3.65,32.79,21.07,59,43,44.56,37.33,97.94,91,96.9,114.48-0.73,16.43-4.85,53.48-9.76,85.45-6.37,41.55-17.25,89-39.67,96.46-35.12,11.67-102.13-12.69-144.1-4.06-41.54,8.65-69.46-4.16-101.8,17.13S330.23,538.75,309,537c-21-1.76-44.66-4.44-53.64-13.53-8.7-8.82-22.37-24-22.75-24.11-2.66-.91-43.33-26.42-75.11-58-6.41-6.38-12.41-13.15-17.72-19.4-14.29-16.79-24.13-34.2-22.56-49.24,5.15-49.15,29.66-123.9,24-147.44-5.59-23.38-56.77-74.67-60.49-100.91-2.39-17-2.46-51.6,4.2-80.11,3.68-15.78,9.45-29.92,18-38.41C127-18.26,165.56-117.72,194-116.47Z" transform="translate(-77.25 227.59)"/><path class="cls-1" d="M234,504.41S110.44,425.77,117,376s32.77-125.82,26.21-149.42S82.91,150.53,79,124.32,77,27.33,101.6,3.74s63.88-125.82,92.72-124.51,96.89,3.88,121.47,15.73,35.16,51.12,65,55,127.93,153.35,151,161.21S691.9,231.8,690.82,269.8s-13.09,161.21-47.71,173-102.73-14.42-144.69-5.24S428.59,433.64,396,457.23s-62.64,86.5-84.32,85.19-46-3.93-54.82-13.11S234,504.41,234,504.41Z" transform="translate(-77.25 227.59)"/></svg>