<?xml version="1.0" encoding="UTF-8" standalone="no"?>
<!-- Created with Inkscape (http://www.inkscape.org/) -->

<svg
   xmlns:dc="http://purl.org/dc/elements/1.1/"
   xmlns:cc="http://creativecommons.org/ns#"
   xmlns:rdf="http://www.w3.org/1999/02/22-rdf-syntax-ns#"
   xmlns:svg="http://www.w3.org/2000/svg"
   xmlns="http://www.w3.org/2000/svg"
   xmlns:sodipodi="http://sodipodi.sourceforge.net/DTD/sodipodi-0.dtd"
   xmlns:inkscape="http://www.inkscape.org/namespaces/inkscape"
   width="88.635414mm"
   height="163.20822mm"
   viewBox="0 0 88.635414 163.20822"
   version="1.1"
   id="svg8"
   inkscape:version="0.92.4 (5da689c313, 2019-01-14)"
   sodipodi:docname="longdrink-crop-canvas.svg">
  <defs
     id="defs2">
    <style
       id="style10">
      .cls-1 {
        fill: #f0f0f0;
      }

      .cls-2 {
        fill: #d22846;
      }

      .cls-3 {
        fill: #ff2846;
      }

      .cls-4 {
        fill: #009664;
      }

      .cls-5 {
        fill: #00dc64;
      }

      .cls-6 {
        fill: #c4cb05;
      }

      .cls-7 {
        fill: #ffd228;
      }

      .cls-8 {
        fill: #d8d8d8;
      }

      .cls-9 {
        fill: #bb2742;
      }

      .cls-10 {
        fill: #e12844;
      }

      .cls-11 {
        fill: #12865b;
      }

      .cls-12 {
        fill: #1ec45f;
      }

      .cls-13 {
        fill: #b0b626;
      }

      .cls-14 {
        fill: #e4bc38;
      }

      .cls-15 {
        fill: #979797;
      }

      .cls-16 {
        fill: #821b2d;
      }

      .cls-17 {
        fill: #9e1b2e;
      }

      .cls-18 {
        fill: #095d40;
      }

      .cls-19 {
        fill: #128a42;
      }

      .cls-20 {
        fill: #7b7f18;
      }

      .cls-21 {
        fill: #9f8325;
      }

      .cls-22 {
        fill: #565656;
      }

      .cls-23 {
        fill: #4b0e1a;
      }

      .cls-24 {
        fill: #5b0f1b;
      }

      .cls-25 {
        fill: #033524;
      }

      .cls-26 {
        fill: #064e25;
      }

      .cls-27 {
        fill: #464809;
      }

      .cls-28 {
        fill: #5c4a15;
      }

      .cls-29 {
        fill: #f5f5f5;
      }

      .cls-30 {
        fill: #de697e;
      }

      .cls-31 {
        fill: #fd697f;
      }

      .cls-32 {
        fill: #51b493;
      }

      .cls-33 {
        fill: #54e496;
      }

      .cls-34 {
        fill: #d6d85b;
      }

      .cls-35 {
        fill: #fedf71;
      }

      .cls-36 {
        fill: #fafafa;
      }

      .cls-37 {
        fill: #fff;
      }

      .cls-38 {
        fill: #efb2be;
      }

      .cls-39 {
        fill: #fcb4be;
      }

      .cls-40 {
        fill: #a7d8c9;
      }

      .cls-41 {
        fill: #a7f2ca;
      }

      .cls-42 {
        fill: #fdefb6;
      }
    </style>
  </defs>
  <sodipodi:namedview
     id="base"
     pagecolor="#ffffff"
     bordercolor="#666666"
     borderopacity="1.0"
     inkscape:pageopacity="0.0"
     inkscape:pageshadow="2"
     inkscape:zoom="0.35"
     inkscape:cx="167.5"
     inkscape:cy="308.425"
     inkscape:document-units="mm"
     inkscape:current-layer="layer1"
     showgrid="false"
     inkscape:window-width="1600"
     inkscape:window-height="847"
     inkscape:window-x="-8"
     inkscape:window-y="-8"
     inkscape:window-maximized="1" />
  <metadata
     id="metadata5">
    <rdf:RDF>
      <cc:Work
         rdf:about="">
        <dc:format>image/svg+xml</dc:format>
        <dc:type
           rdf:resource="http://purl.org/dc/dcmitype/StillImage" />
        <dc:title></dc:title>
      </cc:Work>
    </rdf:RDF>
  </metadata>
  <g
     inkscape:label="Layer 1"
     inkscape:groupmode="layer"
     id="layer1"
     transform="translate(-61.515626,-67.22922)">
    <g
       id="Glass"
       transform="matrix(0.26458333,0,0,0.26458333,-84.444414,47.32197)">
      <path
         id="path16"
         d="M 870.29,201.82 V 567.5 c 0,13.35 -3,24.54 -8.29,34 v 74.16 c 11,-4.51 17.33,-10 17.33,-16.46 V 129.5 h -9 z"
         class="cls-1"
         inkscape:connector-curvature="0"
         style="fill:#f0f0f0" />
      <path
         id="path18"
         d="m 568,567.5 v -438 h -9 v 529.65 c 0,7.62 10.63,14 28,19 V 615.53 C 575.39,603.84 568,588.27 568,567.5 Z"
         class="cls-1"
         inkscape:connector-curvature="0"
         style="fill:#f0f0f0" />
      <path
         id="path20"
         d="M 719.16,650.5 H 719 V 692 c 29.69,0.19 59.38,-1.13 85,-4 v -47 c -30.9,8.84 -65.13,9.5 -84.84,9.5 z"
         class="cls-1"
         inkscape:connector-curvature="0"
         style="fill:#f0f0f0" />
      <path
         id="path22"
         d="m 862,243.17 8.29,2.13 v -43.48 l -8.29,0.64 z"
         class="cls-2"
         inkscape:connector-curvature="0"
         style="fill:#d22846" />
      <polygon
         id="polygon24"
         points="804,245.27 804,232.63 797.5,231.5 788.5,247.5 757.5,255.5 741.5,259.5 729.5,278.5 736.64,290.57 761.64,291.57 781.5,270.5 800.5,245.5 "
         class="cls-2"
         style="fill:#d22846" />
      <polygon
         id="polygon26"
         points="719,204.81 719,238.02 737.5,239.5 741.5,259.5 745.5,245.5 755.5,216.5 720.5,203.5 "
         class="cls-2"
         style="fill:#d22846" />
      <polygon
         id="polygon28"
         points="581.5,249.5 587,254.5 587,221.99 568.04,225.21 568.04,252.08 "
         class="cls-2"
         style="fill:#d22846" />
      <polygon
         id="polygon30"
         points="841,115.5 847,115.5 858,115.5 862,115.5 865.07,115.5 860.25,108.5 824.82,96.31 790.46,107.73 778.7,96.31 754.29,83.14 728.98,82.26 704.56,93.68 684.67,75.24 660.26,100.7 649.41,90.17 600.59,102.46 587.93,100.7 574.77,115.5 587,115.5 607,115.5 650,115.5 719,115.5 804,115.5 "
         class="cls-3"
         style="fill:#ff2846" />
      <polygon
         id="polygon32"
         points="587,129.5 568.04,129.5 568.04,225.21 587,221.99 "
         class="cls-3"
         style="fill:#ff2846" />
      <polygon
         id="polygon34"
         points="757.5,255.5 788.5,247.5 797.5,231.5 804,232.63 804,129.5 719,129.5 719,204.81 720.5,203.5 755.5,216.5 745.5,245.5 741.5,259.5 "
         class="cls-3"
         style="fill:#ff2846" />
      <path
         id="path36"
         d="m 862,202.46 8.29,-0.64 V 129.5 H 862 Z"
         class="cls-3"
         inkscape:connector-curvature="0"
         style="fill:#ff2846" />
      <path
         id="path38"
         d="m 862,262.1 8.29,0.79 V 245.3 L 862,243.17 Z"
         class="cls-4"
         inkscape:connector-curvature="0"
         style="fill:#009664" />
      <path
         id="path40"
         d="m 587,254.5 -5.5,-5 -13.5,2.58 v 24.2 l 19,-5 z"
         class="cls-4"
         inkscape:connector-curvature="0"
         style="fill:#009664" />
      <polygon
         id="polygon42"
         points="729.5,278.5 741.5,259.5 737.5,239.5 719,238.02 719,310.82 750,309 774,295 804,294.12 804,245.27 800.5,245.5 781.5,270.5 761.64,291.57 736.64,290.57 "
         class="cls-4"
         style="fill:#009664" />
      <path
         id="path44"
         d="m 862,326.24 8.29,2 V 262.89 L 862,262.1 Z"
         class="cls-5"
         inkscape:connector-curvature="0"
         style="fill:#00dc64" />
      <polygon
         id="polygon46"
         points="749.5,411.5 737.5,374.5 770.5,344.5 766.5,317.5 804,324.23 804,294.12 774,295 750,309 719,310.82 719,415.13 "
         class="cls-5"
         style="fill:#00dc64" />
      <path
         id="path48"
         d="m 587,271.31 -19,5 v 47.39 l 19,-1.75 z"
         class="cls-5"
         inkscape:connector-curvature="0"
         style="fill:#00dc64" />
      <path
         id="path50"
         d="m 862,341.69 8.29,0.2 v -13.68 l -8.29,-2 z"
         class="cls-6"
         inkscape:connector-curvature="0"
         style="fill:#c4cb05" />
      <path
         id="path52"
         d="m 587,321.92 -19,1.75 v 21.21 l 19,-6.52 z"
         class="cls-6"
         inkscape:connector-curvature="0"
         style="fill:#c4cb05" />
      <polygon
         id="polygon54"
         points="719,415.13 719,426.38 741.5,429.5 762.5,422.5 759.5,384.5 782.5,354.5 777.5,334.5 804,342.51 804,324.23 766.5,317.5 770.5,344.5 737.5,374.5 749.5,411.5 "
         class="cls-6"
         style="fill:#c4cb05" />
      <path
         id="path56"
         d="M 568,344.88 V 567.5 c 0,20.77 7.35,36.34 19,48 V 338.36 Z"
         class="cls-7"
         inkscape:connector-curvature="0"
         style="fill:#ffd228" />
      <path
         id="path58"
         d="m 777.5,334.5 5,20 -23,30 3,38 -21,7 -22.5,-3.12 V 650.5 h 0.16 c 19.71,0 53.94,-0.66 84.84,-9.48 V 342.51 Z"
         class="cls-7"
         inkscape:connector-curvature="0"
         style="fill:#ffd228" />
      <path
         id="path60"
         d="m 862,601.45 c 5.25,-9.41 8.29,-20.6 8.29,-34 V 341.89 l -8.29,-0.2 z"
         class="cls-7"
         inkscape:connector-curvature="0"
         style="fill:#ffd228" />
      <path
         id="path62"
         d="m 569.41,121.52 5.36,-6 h -16.11 a 7,7 0 0 0 0,14 H 559 v -8 z"
         class="cls-1"
         inkscape:connector-curvature="0"
         style="fill:#f0f0f0" />
      <path
         id="path64"
         d="m 879.66,115.5 h -14.59 l 4.16,6 h 10.1 v 8 h 0.33 a 7,7 0 0 0 0,-14 z"
         class="cls-1"
         inkscape:connector-curvature="0"
         style="fill:#f0f0f0" />
      <path
         id="path66"
         d="m 568,123.07 1.37,-1.55 H 559 v 8 h 9 z"
         class="cls-1"
         inkscape:connector-curvature="0"
         style="fill:#f0f0f0" />
      <path
         id="path68"
         d="m 869.23,121.52 1.06,1.55 v 6.43 h 9 v -8 z"
         class="cls-1"
         inkscape:connector-curvature="0"
         style="fill:#f0f0f0" />
      <rect
         id="rect70"
         height="6.02"
         width="85"
         y="115.5"
         x="719"
         class="cls-1"
         style="fill:#f0f0f0" />
      <polygon
         id="polygon72"
         points="862,121.52 869.23,121.52 865.07,115.5 862,115.5 "
         class="cls-1"
         style="fill:#f0f0f0" />
      <polygon
         id="polygon74"
         points="587,121.52 587,115.5 574.77,115.5 569.41,121.52 "
         class="cls-1"
         style="fill:#f0f0f0" />
      <path
         id="path76"
         d="m 862,129.5 h 8.29 v -6.43 l -1.06,-1.55 H 862 Z"
         class="cls-1"
         inkscape:connector-curvature="0"
         style="fill:#f0f0f0" />
      <polygon
         id="polygon78"
         points="587,129.5 587,121.52 569.41,121.52 568.04,123.06 568.04,129.5 "
         class="cls-1"
         style="fill:#f0f0f0" />
      <rect
         id="rect80"
         height="7.98"
         width="85"
         y="121.52"
         x="719"
         class="cls-1"
         style="fill:#f0f0f0" />
      <path
         id="path82"
         d="m 841,624.21 c -10.72,7.57 -23.54,13 -37,16.81 v 47 a 337.81,337.81 0 0 0 37,-6 z"
         class="cls-1"
         inkscape:connector-curvature="0"
         style="fill:#f0f0f0" />
      <path
         id="path84"
         d="m 841,624.21 c -10.72,7.57 -23.54,13 -37,16.81 v 47 a 337.81,337.81 0 0 0 37,-6 z"
         class="cls-8"
         inkscape:connector-curvature="0"
         style="fill:#d8d8d8" />
      <path
         id="path86"
         d="m 858,607.72 v 69.43 c 1.39,-0.5 2.73,-1 4,-1.54 v -74.16 a 63.48,63.48 0 0 1 -4,6.27 z"
         class="cls-1"
         inkscape:connector-curvature="0"
         style="fill:#f0f0f0" />
      <path
         id="path88"
         d="m 858,607.72 v 69.43 c 1.39,-0.5 2.73,-1 4,-1.54 v -74.16 a 63.48,63.48 0 0 1 -4,6.27 z"
         class="cls-8"
         inkscape:connector-curvature="0"
         style="fill:#d8d8d8" />
      <polygon
         id="polygon90"
         points="841,253.1 841,231.67 832.5,217.5 820.5,235.5 804,232.63 804,245.27 815.5,244.5 815.5,261.5 828.5,255.5 840.5,253.5 "
         class="cls-2"
         style="fill:#d22846" />
      <polygon
         id="polygon92"
         points="841,253.1 841,231.67 832.5,217.5 820.5,235.5 804,232.63 804,245.27 815.5,244.5 815.5,261.5 828.5,255.5 840.5,253.5 "
         class="cls-9"
         style="fill:#bb2742" />
      <polygon
         id="polygon94"
         points="861.5,202.5 858,212.13 858,242.14 862,243.17 862,202.46 "
         class="cls-2"
         style="fill:#d22846" />
      <polygon
         id="polygon96"
         points="861.5,202.5 858,212.13 858,242.14 862,243.17 862,202.46 "
         class="cls-9"
         style="fill:#bb2742" />
      <polygon
         id="polygon98"
         points="804,129.5 804,232.63 820.5,235.5 832.5,217.5 841,231.67 841,129.5 "
         class="cls-3"
         style="fill:#ff2846" />
      <polygon
         id="polygon100"
         points="804,129.5 804,232.63 820.5,235.5 832.5,217.5 841,231.67 841,129.5 "
         class="cls-10"
         style="fill:#e12844" />
      <polygon
         id="polygon102"
         points="858,129.5 858,212.13 861.5,202.5 862,202.46 862,129.5 "
         class="cls-3"
         style="fill:#ff2846" />
      <polygon
         id="polygon104"
         points="858,129.5 858,212.13 861.5,202.5 862,202.46 862,129.5 "
         class="cls-10"
         style="fill:#e12844" />
      <polygon
         id="polygon106"
         points="858,242.14 858,263.43 861,262 862,262.1 862,243.17 "
         class="cls-4"
         style="fill:#009664" />
      <polygon
         id="polygon108"
         points="858,242.14 858,263.43 861,262 862,262.1 862,243.17 "
         class="cls-11"
         style="fill:#12865b" />
      <polygon
         id="polygon110"
         points="804,245.27 804,294.12 808,294 813,272 840,272 841,271.52 841,253.1 840.5,253.5 828.5,255.5 815.5,261.5 815.5,244.5 "
         class="cls-4"
         style="fill:#009664" />
      <polygon
         id="polygon112"
         points="804,245.27 804,294.12 808,294 813,272 840,272 841,271.52 841,253.1 840.5,253.5 828.5,255.5 815.5,261.5 815.5,244.5 "
         class="cls-11"
         style="fill:#12865b" />
      <polygon
         id="polygon114"
         points="861,262 858,263.43 858,325.29 862,326.24 862,262.1 "
         class="cls-5"
         style="fill:#00dc64" />
      <polygon
         id="polygon116"
         points="861,262 858,263.43 858,325.29 862,326.24 862,262.1 "
         class="cls-12"
         style="fill:#1ec45f" />
      <polygon
         id="polygon118"
         points="804,324.23 805.5,324.5 817.5,323.5 822.5,335.5 838.5,343.5 841,339.33 841,271.52 840,272 813,272 808,294 804,294.12 "
         class="cls-5"
         style="fill:#00dc64" />
      <polygon
         id="polygon120"
         points="804,324.23 805.5,324.5 817.5,323.5 822.5,335.5 838.5,343.5 841,339.33 841,271.52 840,272 813,272 808,294 804,294.12 "
         class="cls-12"
         style="fill:#1ec45f" />
      <polygon
         id="polygon122"
         points="858,341.59 862,341.69 862,326.24 858,325.29 "
         class="cls-6"
         style="fill:#c4cb05" />
      <polygon
         id="polygon124"
         points="858,341.59 862,341.69 862,326.24 858,325.29 "
         class="cls-13"
         style="fill:#b0b626" />
      <polygon
         id="polygon126"
         points="804,324.23 804,342.51 820.5,347.5 837.5,352.5 841,350.24 841,339.33 838.5,343.5 822.5,335.5 817.5,323.5 805.5,324.5 "
         class="cls-6"
         style="fill:#c4cb05" />
      <polygon
         id="polygon128"
         points="804,324.23 804,342.51 820.5,347.5 837.5,352.5 841,350.24 841,339.33 838.5,343.5 822.5,335.5 817.5,323.5 805.5,324.5 "
         class="cls-13"
         style="fill:#b0b626" />
      <path
         id="path130"
         d="m 837.5,352.5 -17,-5 -16.5,-5 V 641 c 13.46,-3.85 26.28,-9.24 37,-16.81 v -274 z"
         class="cls-7"
         inkscape:connector-curvature="0"
         style="fill:#ffd228" />
      <path
         id="path132"
         d="m 837.5,352.5 -17,-5 -16.5,-5 V 641 c 13.46,-3.85 26.28,-9.24 37,-16.81 v -274 z"
         class="cls-14"
         inkscape:connector-curvature="0"
         style="fill:#e4bc38" />
      <path
         id="path134"
         d="m 858,341.59 v 266.13 a 63.48,63.48 0 0 0 4,-6.27 V 341.69 Z"
         class="cls-7"
         inkscape:connector-curvature="0"
         style="fill:#ffd228" />
      <path
         id="path136"
         d="m 858,341.59 v 266.13 a 63.48,63.48 0 0 0 4,-6.27 V 341.69 Z"
         class="cls-14"
         inkscape:connector-curvature="0"
         style="fill:#e4bc38" />
      <rect
         id="rect138"
         height="6.02"
         width="37"
         y="115.5"
         x="804"
         class="cls-1"
         style="fill:#f0f0f0" />
      <rect
         id="rect140"
         height="6.02"
         width="4"
         y="115.5"
         x="858"
         class="cls-1"
         style="fill:#f0f0f0" />
      <rect
         id="rect142"
         height="7.98"
         width="4"
         y="121.52"
         x="858"
         class="cls-1"
         style="fill:#f0f0f0" />
      <rect
         id="rect144"
         height="7.98"
         width="37"
         y="121.52"
         x="804"
         class="cls-1"
         style="fill:#f0f0f0" />
      <polygon
         id="polygon146"
         points="841,121.52 841,115.5 804,115.5 804,121.52 804,129.5 841,129.5 "
         class="cls-8"
         style="fill:#d8d8d8" />
      <path
         id="path148"
         d="m 847,619.54 v 61 c 4,-1 7.66,-2.17 11,-3.37 v -69.45 a 68.82,68.82 0 0 1 -11,11.82 z"
         class="cls-1"
         inkscape:connector-curvature="0"
         style="fill:#f0f0f0" />
      <path
         id="path150"
         d="m 847,619.54 v 61 c 4,-1 7.66,-2.17 11,-3.37 v -69.45 a 68.82,68.82 0 0 1 -11,11.82 z"
         inkscape:connector-curvature="0" />
      <path
         id="path152"
         d="m 847,619.54 v 61 c 4,-1 7.66,-2.17 11,-3.37 v -69.45 a 68.82,68.82 0 0 1 -11,11.82 z"
         class="cls-15"
         inkscape:connector-curvature="0"
         style="fill:#979797" />
      <polygon
         id="polygon154"
         points="858,212.13 853.5,224.5 847,228.83 847,248.3 855.5,241.5 858,242.14 "
         class="cls-2"
         style="fill:#d22846" />
      <polygon
         id="polygon156"
         points="858,212.13 853.5,224.5 847,228.83 847,248.3 855.5,241.5 858,242.14 " />
      <polygon
         id="polygon158"
         points="858,212.13 853.5,224.5 847,228.83 847,248.3 855.5,241.5 858,242.14 "
         class="cls-16"
         style="fill:#821b2d" />
      <polygon
         id="polygon160"
         points="847,129.5 847,228.83 853.5,224.5 858,212.13 858,129.5 "
         class="cls-3"
         style="fill:#ff2846" />
      <polygon
         id="polygon162"
         points="847,129.5 847,228.83 853.5,224.5 858,212.13 858,129.5 " />
      <polygon
         id="polygon164"
         points="847,129.5 847,228.83 853.5,224.5 858,212.13 858,129.5 "
         class="cls-17"
         style="fill:#9e1b2e" />
      <polygon
         id="polygon166"
         points="855.5,241.5 847,248.3 847,268.67 858,263.43 858,242.14 "
         class="cls-4"
         style="fill:#009664" />
      <polygon
         id="polygon168"
         points="855.5,241.5 847,248.3 847,268.67 858,263.43 858,242.14 " />
      <polygon
         id="polygon170"
         points="855.5,241.5 847,248.3 847,268.67 858,263.43 858,242.14 "
         class="cls-18"
         style="fill:#095d40" />
      <polygon
         id="polygon172"
         points="847,268.67 847,329.33 850.5,323.5 858,325.29 858,263.43 "
         class="cls-5"
         style="fill:#00dc64" />
      <polygon
         id="polygon174"
         points="847,268.67 847,329.33 850.5,323.5 858,325.29 858,263.43 " />
      <polygon
         id="polygon176"
         points="847,268.67 847,329.33 850.5,323.5 858,325.29 858,263.43 "
         class="cls-19"
         style="fill:#128a42" />
      <polygon
         id="polygon178"
         points="858,341.59 858,325.29 850.5,323.5 847,329.33 847,346.35 854.5,341.5 "
         class="cls-6"
         style="fill:#c4cb05" />
      <polygon
         id="polygon180"
         points="858,341.59 858,325.29 850.5,323.5 847,329.33 847,346.35 854.5,341.5 " />
      <polygon
         id="polygon182"
         points="858,341.59 858,325.29 850.5,323.5 847,329.33 847,346.35 854.5,341.5 "
         class="cls-20"
         style="fill:#7b7f18" />
      <path
         id="path184"
         d="m 854.5,341.5 -7.5,4.85 v 273.19 a 68.82,68.82 0 0 0 11,-11.82 V 341.59 Z"
         class="cls-7"
         inkscape:connector-curvature="0"
         style="fill:#ffd228" />
      <path
         id="path186"
         d="m 854.5,341.5 -7.5,4.85 v 273.19 a 68.82,68.82 0 0 0 11,-11.82 V 341.59 Z"
         inkscape:connector-curvature="0" />
      <path
         id="path188"
         d="m 854.5,341.5 -7.5,4.85 v 273.19 a 68.82,68.82 0 0 0 11,-11.82 V 341.59 Z"
         class="cls-21"
         inkscape:connector-curvature="0"
         style="fill:#9f8325" />
      <rect
         id="rect190"
         height="6.02"
         width="11"
         y="115.5"
         x="847"
         class="cls-1"
         style="fill:#f0f0f0" />
      <rect
         id="rect192"
         height="6.02"
         width="11"
         y="115.5"
         x="847"
         class="cls-8"
         style="fill:#d8d8d8" />
      <rect
         id="rect194"
         height="7.98"
         width="11"
         y="121.52"
         x="847"
         class="cls-1"
         style="fill:#f0f0f0" />
      <rect
         id="rect196"
         height="7.98"
         width="11"
         y="121.52"
         x="847"
         class="cls-8"
         style="fill:#d8d8d8" />
      <path
         id="path198"
         d="M 841,624.21 V 682 q 3.11,-0.71 6,-1.47 v -61 c -1.92,1.65 -3.91,3.21 -6,4.68 z"
         class="cls-1"
         inkscape:connector-curvature="0"
         style="fill:#f0f0f0" />
      <path
         id="path200"
         d="M 841,624.21 V 682 q 3.11,-0.71 6,-1.47 v -61 c -1.92,1.65 -3.91,3.21 -6,4.68 z"
         inkscape:connector-curvature="0" />
      <path
         id="path202"
         d="M 841,624.21 V 682 q 3.11,-0.71 6,-1.47 v -61 c -1.92,1.65 -3.91,3.21 -6,4.68 z"
         class="cls-22"
         inkscape:connector-curvature="0"
         style="fill:#565656" />
      <polygon
         id="polygon204"
         points="841.5,232.5 841,231.67 841,253.1 847,248.3 847,228.83 "
         class="cls-2"
         style="fill:#d22846" />
      <polygon
         id="polygon206"
         points="841.5,232.5 841,231.67 841,253.1 847,248.3 847,228.83 " />
      <polygon
         id="polygon208"
         points="841.5,232.5 841,231.67 841,253.1 847,248.3 847,228.83 "
         class="cls-23"
         style="fill:#4b0e1a" />
      <polygon
         id="polygon210"
         points="841,231.67 841.5,232.5 847,228.83 847,129.5 841,129.5 "
         class="cls-3"
         style="fill:#ff2846" />
      <polygon
         id="polygon212"
         points="841,231.67 841.5,232.5 847,228.83 847,129.5 841,129.5 " />
      <polygon
         id="polygon214"
         points="841,231.67 841.5,232.5 847,228.83 847,129.5 841,129.5 "
         class="cls-24"
         style="fill:#5b0f1b" />
      <polygon
         id="polygon216"
         points="841,271.52 847,268.67 847,248.3 841,253.1 "
         class="cls-4"
         style="fill:#009664" />
      <polygon
         id="polygon218"
         points="841,271.52 847,268.67 847,248.3 841,253.1 " />
      <polygon
         id="polygon220"
         points="841,271.52 847,268.67 847,248.3 841,253.1 "
         class="cls-25"
         style="fill:#033524" />
      <polygon
         id="polygon222"
         points="841,271.52 841,339.33 847,329.33 847,268.67 "
         class="cls-5"
         style="fill:#00dc64" />
      <polygon
         id="polygon224"
         points="841,271.52 841,339.33 847,329.33 847,268.67 " />
      <polygon
         id="polygon226"
         points="841,271.52 841,339.33 847,329.33 847,268.67 "
         class="cls-26"
         style="fill:#064e25" />
      <polygon
         id="polygon228"
         points="841,339.33 841,350.24 847,346.35 847,329.33 "
         class="cls-6"
         style="fill:#c4cb05" />
      <polygon
         id="polygon230"
         points="841,339.33 841,350.24 847,346.35 847,329.33 " />
      <polygon
         id="polygon232"
         points="841,339.33 841,350.24 847,346.35 847,329.33 "
         class="cls-27"
         style="fill:#464809" />
      <path
         id="path234"
         d="m 847,346.35 -6,3.89 v 274 c 2.09,-1.47 4.08,-3 6,-4.67 z"
         class="cls-7"
         inkscape:connector-curvature="0"
         style="fill:#ffd228" />
      <path
         id="path236"
         d="m 847,346.35 -6,3.89 v 274 c 2.09,-1.47 4.08,-3 6,-4.67 z"
         inkscape:connector-curvature="0" />
      <path
         id="path238"
         d="m 847,346.35 -6,3.89 v 274 c 2.09,-1.47 4.08,-3 6,-4.67 z"
         class="cls-28"
         inkscape:connector-curvature="0"
         style="fill:#5c4a15" />
      <rect
         id="rect240"
         height="6.02"
         width="6"
         y="115.5"
         x="841"
         class="cls-1"
         style="fill:#f0f0f0" />
      <rect
         id="rect242"
         height="6.02"
         width="6"
         y="115.5"
         x="841"
         class="cls-8"
         style="fill:#d8d8d8" />
      <rect
         id="rect244"
         height="7.98"
         width="6"
         y="121.52"
         x="841"
         class="cls-1"
         style="fill:#f0f0f0" />
      <rect
         id="rect246"
         height="7.98"
         width="6"
         y="121.52"
         x="841"
         class="cls-8"
         style="fill:#d8d8d8" />
      <g
         id="g254">
        <path
           id="path248"
           d="m 858,115.5 a 11.91,11.91 0 0 1 0,14 h 4 a 11.91,11.91 0 0 0 0,-14 z"
           class="cls-8"
           inkscape:connector-curvature="0"
           style="fill:#d8d8d8" />
        <path
           id="path250"
           d="m 847,115.5 a 11.91,11.91 0 0 1 0,14 h 11 a 11.91,11.91 0 0 0 0,-14 z"
           class="cls-15"
           inkscape:connector-curvature="0"
           style="fill:#979797" />
        <path
           id="path252"
           d="m 841,115.5 a 11.91,11.91 0 0 1 0,14 h 6 a 11.91,11.91 0 0 0 0,-14 z"
           class="cls-22"
           inkscape:connector-curvature="0"
           style="fill:#565656" />
      </g>
      <path
         id="path256"
         d="m 650,644.79 v 44 c 21.61,2 45.3,3.14 69,3.3 V 650.5 c -16.43,0 -42.83,-0.5 -69,-5.71 z"
         class="cls-1"
         inkscape:connector-curvature="0"
         style="fill:#f0f0f0" />
      <path
         id="path258"
         d="m 650,644.79 v 44 c 21.61,2 45.3,3.14 69,3.3 V 650.5 c -16.43,0 -42.83,-0.5 -69,-5.71 z"
         class="cls-29"
         inkscape:connector-curvature="0"
         style="fill:#f5f5f5" />
      <path
         id="path260"
         d="m 607,630.18 a 84.82,84.82 0 0 1 -20,-14.65 v 62.64 c 5.93,1.72 12.65,3.29 20,4.7 z"
         class="cls-1"
         inkscape:connector-curvature="0"
         style="fill:#f0f0f0" />
      <path
         id="path262"
         d="m 607,630.18 a 84.82,84.82 0 0 1 -20,-14.65 v 62.64 c 5.93,1.72 12.65,3.29 20,4.7 z"
         class="cls-29"
         inkscape:connector-curvature="0"
         style="fill:#f5f5f5" />
      <polygon
         id="polygon264"
         points="592.5,259.5 607,252.25 607,218.6 587,221.99 587,254.5 "
         class="cls-2"
         style="fill:#d22846" />
      <polygon
         id="polygon266"
         points="592.5,259.5 607,252.25 607,218.6 587,221.99 587,254.5 "
         class="cls-30"
         style="fill:#de697e" />
      <polygon
         id="polygon268"
         points="701.5,264.5 712.5,237.5 719,238.02 719,204.81 712.5,210.5 682.5,216.5 674.5,198.5 666.5,219.5 653.5,232.5 650,230.17 650,253.18 657.5,252.5 669.5,257.5 675.5,268.5 688.5,249.5 "
         class="cls-2"
         style="fill:#d22846" />
      <polygon
         id="polygon270"
         points="701.5,264.5 712.5,237.5 719,238.02 719,204.81 712.5,210.5 682.5,216.5 674.5,198.5 666.5,219.5 653.5,232.5 650,230.17 650,253.18 657.5,252.5 669.5,257.5 675.5,268.5 688.5,249.5 "
         class="cls-30"
         style="fill:#de697e" />
      <polygon
         id="polygon272"
         points="719,204.81 719,129.5 650,129.5 650,230.17 653.5,232.5 666.5,219.5 674.5,198.5 682.5,216.5 712.5,210.5 "
         class="cls-3"
         style="fill:#ff2846" />
      <polygon
         id="polygon274"
         points="719,204.81 719,129.5 650,129.5 650,230.17 653.5,232.5 666.5,219.5 674.5,198.5 682.5,216.5 712.5,210.5 "
         class="cls-31"
         style="fill:#fd697f" />
      <polygon
         id="polygon276"
         points="607,129.5 587,129.5 587,221.99 607,218.6 "
         class="cls-3"
         style="fill:#ff2846" />
      <polygon
         id="polygon278"
         points="607,129.5 587,129.5 587,221.99 607,218.6 "
         class="cls-31"
         style="fill:#fd697f" />
      <polygon
         id="polygon280"
         points="669.5,257.5 657.5,252.5 650,253.18 650,275.6 652,275 674,287 694,280 704,274 716,311 719,310.82 719,238.02 712.5,237.5 701.5,264.5 688.5,249.5 675.5,268.5 "
         class="cls-4"
         style="fill:#009664" />
      <polygon
         id="polygon282"
         points="669.5,257.5 657.5,252.5 650,253.18 650,275.6 652,275 674,287 694,280 704,274 716,311 719,310.82 719,238.02 712.5,237.5 701.5,264.5 688.5,249.5 675.5,268.5 "
         class="cls-32"
         style="fill:#51b493" />
      <polygon
         id="polygon284"
         points="587,271.31 592,270 607,277 607,252.25 592.5,259.5 587,254.5 "
         class="cls-4"
         style="fill:#009664" />
      <polygon
         id="polygon286"
         points="587,271.31 592,270 607,277 607,252.25 592.5,259.5 587,254.5 "
         class="cls-32"
         style="fill:#51b493" />
      <polygon
         id="polygon288"
         points="587,321.92 591.5,321.5 607,332.48 607,277 592,270 587,271.31 "
         class="cls-5"
         style="fill:#00dc64" />
      <polygon
         id="polygon290"
         points="587,321.92 591.5,321.5 607,332.48 607,277 592,270 587,271.31 "
         class="cls-33"
         style="fill:#54e496" />
      <polygon
         id="polygon292"
         points="652,275 650,275.6 650,341.92 661.5,328.5 704.5,319.5 689.5,351.5 702.5,367.5 674.5,391.5 707.5,416.5 719,415.13 719,310.82 716,311 704,274 694,280 674,287 "
         class="cls-5"
         style="fill:#00dc64" />
      <polygon
         id="polygon294"
         points="652,275 650,275.6 650,341.92 661.5,328.5 704.5,319.5 689.5,351.5 702.5,367.5 674.5,391.5 707.5,416.5 719,415.13 719,310.82 716,311 704,274 694,280 674,287 "
         class="cls-33"
         style="fill:#54e496" />
      <path
         id="path296"
         d="m 707.5,416.5 -33,-25 28,-24 -13,-16 15,-32 -43,9 -11.5,13.42 v 15.62 l 23.5,-15 6,12 c 0,0 -5,14 -6,18 -1,4 -14,32 -14,32 l 22,8 24,12 13.5,1.88 v -11.29 z"
         class="cls-6"
         inkscape:connector-curvature="0"
         style="fill:#c4cb05" />
      <path
         id="path298"
         d="m 707.5,416.5 -33,-25 28,-24 -13,-16 15,-32 -43,9 -11.5,13.42 v 15.62 l 23.5,-15 6,12 c 0,0 -5,14 -6,18 -1,4 -14,32 -14,32 l 22,8 24,12 13.5,1.88 v -11.29 z"
         class="cls-34"
         inkscape:connector-curvature="0"
         style="fill:#d6d85b" />
      <polygon
         id="polygon300"
         points="607,348.64 607,332.48 591.5,321.5 587,321.92 587,338.36 589.5,337.5 "
         class="cls-6"
         style="fill:#c4cb05" />
      <polygon
         id="polygon302"
         points="607,348.64 607,332.48 591.5,321.5 587,321.92 587,338.36 589.5,337.5 "
         class="cls-34"
         style="fill:#d6d85b" />
      <path
         id="path304"
         d="m 705.5,424.5 -24,-12 -22,-8 c 0,0 13,-28 14,-32 1,-4 6,-18 6,-18 l -6,-12 -23.5,15 v 287.29 c 26.17,5.24 52.57,5.71 69,5.71 V 426.38 Z"
         class="cls-7"
         inkscape:connector-curvature="0"
         style="fill:#ffd228" />
      <path
         id="path306"
         d="m 705.5,424.5 -24,-12 -22,-8 c 0,0 13,-28 14,-32 1,-4 6,-18 6,-18 l -6,-12 -23.5,15 v 287.29 c 26.17,5.24 52.57,5.71 69,5.71 V 426.38 Z"
         class="cls-35"
         inkscape:connector-curvature="0"
         style="fill:#fedf71" />
      <path
         id="path308"
         d="m 589.5,337.5 -2.5,0.86 v 277.17 a 84.82,84.82 0 0 0 20,14.65 V 348.64 Z"
         class="cls-7"
         inkscape:connector-curvature="0"
         style="fill:#ffd228" />
      <path
         id="path310"
         d="m 589.5,337.5 -2.5,0.86 v 277.17 a 84.82,84.82 0 0 0 20,14.65 V 348.64 Z"
         class="cls-35"
         inkscape:connector-curvature="0"
         style="fill:#fedf71" />
      <rect
         id="rect312"
         height="6.02"
         width="20"
         y="115.5"
         x="587"
         class="cls-1"
         style="fill:#f0f0f0" />
      <rect
         id="rect314"
         height="6.02"
         width="69"
         y="115.5"
         x="650"
         class="cls-1"
         style="fill:#f0f0f0" />
      <rect
         id="rect316"
         height="7.98"
         width="69"
         y="121.52"
         x="650"
         class="cls-1"
         style="fill:#f0f0f0" />
      <polygon
         id="polygon318"
         points="719,121.52 719,115.5 650,115.5 650,121.52 650,129.5 719,129.5 "
         class="cls-36"
         style="fill:#fafafa" />
      <rect
         id="rect320"
         height="7.98"
         width="20"
         y="121.52"
         x="587"
         class="cls-1"
         style="fill:#f0f0f0" />
      <polygon
         id="polygon322"
         points="607,121.52 607,115.5 587,115.5 587,121.52 587,129.5 607,129.5 "
         class="cls-29"
         style="fill:#f5f5f5" />
      <path
         id="path324"
         d="m 607,682.87 c 12.71,2.43 27.3,4.39 43,5.87 v -44 c -15.06,-3 -30,-7.61 -43,-14.61 z"
         class="cls-1"
         inkscape:connector-curvature="0"
         style="fill:#f0f0f0" />
      <path
         id="path326"
         d="m 607,682.87 c 12.71,2.43 27.3,4.39 43,5.87 v -44 c -15.06,-3 -30,-7.61 -43,-14.61 z"
         class="cls-37"
         inkscape:connector-curvature="0"
         style="fill:#ffffff" />
      <path
         id="path328"
         d="m 607,682.87 c 12.71,2.43 27.3,4.39 43,5.87 v -44 c -15.06,-3 -30,-7.61 -43,-14.61 z"
         class="cls-36"
         inkscape:connector-curvature="0"
         style="fill:#fafafa" />
      <polygon
         id="polygon330"
         points="635.5,220.5 627.5,231.5 613.5,217.5 607,218.6 607,252.25 612.5,249.5 620.5,262.5 646.5,253.5 650,253.18 650,230.17 "
         class="cls-2"
         style="fill:#d22846" />
      <polygon
         id="polygon332"
         points="635.5,220.5 627.5,231.5 613.5,217.5 607,218.6 607,252.25 612.5,249.5 620.5,262.5 646.5,253.5 650,253.18 650,230.17 "
         class="cls-37"
         style="fill:#ffffff" />
      <polygon
         id="polygon334"
         points="635.5,220.5 627.5,231.5 613.5,217.5 607,218.6 607,252.25 612.5,249.5 620.5,262.5 646.5,253.5 650,253.18 650,230.17 "
         class="cls-38"
         style="fill:#efb2be" />
      <polygon
         id="polygon336"
         points="650,129.5 607,129.5 607,218.6 613.5,217.5 627.5,231.5 635.5,220.5 650,230.17 "
         class="cls-3"
         style="fill:#ff2846" />
      <polygon
         id="polygon338"
         points="650,129.5 607,129.5 607,218.6 613.5,217.5 627.5,231.5 635.5,220.5 650,230.17 "
         class="cls-37"
         style="fill:#ffffff" />
      <polygon
         id="polygon340"
         points="650,129.5 607,129.5 607,218.6 613.5,217.5 627.5,231.5 635.5,220.5 650,230.17 "
         class="cls-39"
         style="fill:#fcb4be" />
      <polygon
         id="polygon342"
         points="612.5,249.5 607,252.25 607,277 622,284 650,275.6 650,253.18 646.5,253.5 620.5,262.5 "
         class="cls-4"
         style="fill:#009664" />
      <polygon
         id="polygon344"
         points="612.5,249.5 607,252.25 607,277 622,284 650,275.6 650,253.18 646.5,253.5 620.5,262.5 "
         class="cls-37"
         style="fill:#ffffff" />
      <polygon
         id="polygon346"
         points="612.5,249.5 607,252.25 607,277 622,284 650,275.6 650,253.18 646.5,253.5 620.5,262.5 "
         class="cls-40"
         style="fill:#a7d8c9" />
      <polygon
         id="polygon348"
         points="632.5,329.5 649.5,342.5 650,341.92 650,275.6 622,284 607,277 607,332.48 615.5,338.5 "
         class="cls-5"
         style="fill:#00dc64" />
      <polygon
         id="polygon350"
         points="632.5,329.5 649.5,342.5 650,341.92 650,275.6 622,284 607,277 607,332.48 615.5,338.5 "
         class="cls-37"
         style="fill:#ffffff" />
      <polygon
         id="polygon352"
         points="632.5,329.5 649.5,342.5 650,341.92 650,275.6 622,284 607,277 607,332.48 615.5,338.5 "
         class="cls-41"
         style="fill:#a7f2ca" />
      <polygon
         id="polygon354"
         points="607,348.64 611.5,351.5 633.5,345.5 648.5,358.5 650,357.54 650,341.92 649.5,342.5 632.5,329.5 615.5,338.5 607,332.48 "
         class="cls-6"
         style="fill:#c4cb05" />
      <polygon
         id="polygon356"
         points="607,348.64 611.5,351.5 633.5,345.5 648.5,358.5 650,357.54 650,341.92 649.5,342.5 632.5,329.5 615.5,338.5 607,332.48 "
         class="cls-37"
         style="fill:#ffffff" />
      <polygon
         id="polygon358"
         points="607,348.64 611.5,351.5 633.5,345.5 648.5,358.5 650,357.54 650,341.92 649.5,342.5 632.5,329.5 615.5,338.5 607,332.48 "
         class="cls-41"
         style="fill:#a7f2ca" />
      <path
         id="path360"
         d="m 648.5,358.5 -15,-13 -22,6 -4.5,-2.86 v 281.54 c 13,7 27.94,11.59 43,14.61 V 357.54 Z"
         class="cls-7"
         inkscape:connector-curvature="0"
         style="fill:#ffd228" />
      <path
         id="path362"
         d="m 648.5,358.5 -15,-13 -22,6 -4.5,-2.86 v 281.54 c 13,7 27.94,11.59 43,14.61 V 357.54 Z"
         class="cls-37"
         inkscape:connector-curvature="0"
         style="fill:#ffffff" />
      <path
         id="path364"
         d="m 648.5,358.5 -15,-13 -22,6 -4.5,-2.86 v 281.54 c 13,7 27.94,11.59 43,14.61 V 357.54 Z"
         class="cls-42"
         inkscape:connector-curvature="0"
         style="fill:#fdefb6" />
      <rect
         id="rect366"
         height="6.02"
         width="43"
         y="115.5"
         x="607"
         class="cls-1"
         style="fill:#f0f0f0" />
      <rect
         id="rect368"
         height="6.02"
         width="43"
         y="115.5"
         x="607"
         class="cls-37"
         style="fill:#ffffff" />
      <rect
         id="rect370"
         height="7.98"
         width="43"
         y="121.52"
         x="607"
         class="cls-1"
         style="fill:#f0f0f0" />
      <rect
         id="rect372"
         height="7.98"
         width="43"
         y="121.52"
         x="607"
         class="cls-37"
         style="fill:#ffffff" />
      <polygon
         id="polygon374"
         points="650,121.52 650,115.5 607,115.5 607,121.52 607,129.5 650,129.5 "
         class="cls-36"
         style="fill:#fafafa" />
      <rect
         id="rect376"
         height="350"
         width="13"
         y="211"
         x="617"
         class="cls-36"
         style="fill:#fafafa" />
    </g>
  </g>
</svg>
