<svg xmlns="http://www.w3.org/2000/svg" width="720" height="720" preserveAspectRatio="xMidYMid meet"> <!-- 370 0 700 700 -->
  <defs>
    <style>
      .cls-1 {
        fill: #006400;
      }

      .cls-2 {
        fill: #fffadc;
      }

      .cls-3 {
        fill: #e60a28;
      }

      .cls-4 {
        fill: #fa1428;
      }
    </style>
  </defs>
  <title>watermelon-1-01</title>
  <g id="watermelon">
    <g>
      <path class="cls-1" d="M720,688.5A762,762,0,0,1,334.11,584.25l-6.71,9.4A773.37,773.37,0,0,0,720,700a773.37,773.37,0,0,0,392.6-106.35l-6.71-9.4A762,762,0,0,1,720,688.5Z"/>
      <path class="cls-2" d="M1105.89,584.25l-32.11-45A707.21,707.21,0,0,1,720,633.5a707.21,707.21,0,0,1-353.78-94.21l-32.11,45A762,762,0,0,0,720,688.5,762,762,0,0,0,1105.89,584.25Z"/>
    </g>
    <g>
      <path class="cls-3" d="M761.93,102.7c1.85,52.82,3.14,112.87,37.07,159.3,38,52,81.56,29.84,119.79,80.19,17.64,23.23,35.37,46.59,49,72.38a268.64,268.64,0,0,1,20.1,49.26c6.34,21.41,9.21,46.88-5.1,64-13.7,16.4-38.12,18.79-59.25,15.6S863.33,461.66,842,463c-36.19,2.28-49.11,100.65-85.35,101.87-57,1.9-50.91-135-106.65-122.87-23.88,5.2-99.84,98.39-123.83,93.76-23-4.42-36.87-29.95-36.31-53.35.36-14.66-28.39-33.26-47.17-50.18L366.22,539.29C406,588,476,609,538,610c46,28,126,36,182,23.5C771,653,883,634,917,605c83,3,133-33,156.78-65.71Z"/>
      <path class="cls-4" d="M489.86,482.41c-.56,23.4,13.33,48.93,36.31,53.35,24,4.63,100-88.56,123.83-93.76,55.74-12.13,49.64,124.77,106.65,122.87C792.89,563.65,805.81,465.28,842,463c21.33-1.34,60.42,77.25,81.55,80.45s45.55.8,59.25-15.6c14.31-17.14,11.44-42.61,5.1-64a268.64,268.64,0,0,0-20.1-49.26c-13.64-25.79-31.37-49.15-49-72.38C880.56,291.84,837,314,799,262c-33.93-46.43-35.22-106.48-37.07-159.3l-28.1-39.33a17,17,0,0,0-27.66,0L442.69,432.23C461.47,449.15,490.22,467.75,489.86,482.41Z"/>
    </g>
  </g>
</svg>
