<?xml version="1.0" encoding="utf-8"?>
<!-- Generator: Adobe Illustrator 23.0.1, SVG Export Plug-In . SVG Version: 6.00 Build 0)  -->
<svg version="1.0" id="Layer_1" xmlns="http://www.w3.org/2000/svg" xmlns:xlink="http://www.w3.org/1999/xlink" x="0px" y="0px" width="800px" height="800px"
	 viewBox="0 0 800 800" enable-background="new 0 0 800 800" xml:space="preserve">
<g>
	<g>
		<path fill="#28E65A" d="M600,282c0-69.8-35.8-131.3-90-167v167H600z"/>
	</g>
	<g>
		<path fill="#28E65A" d="M290,146.5V115c-54.2,35.8-90,97.2-90,167h26C226.6,227.7,251.4,179.1,290,146.5z"/>
	</g>
	<g>
		<path fill="#28E65A" d="M290,205.7c-14.8,21.8-23.6,48.1-24,76.3h24v-49.3V205.7z"/>
	</g>
	<g>
		<path fill="#28E65A" d="M406,104c11,0,20,9,20,20s-9,20-20,20c-13.9,0-27.3,2-40,5.8v30V282h68V84.9C422.9,83,411.6,82,400,82
			s-22.9,1-34,2.9v23.6C378.9,105.6,392.3,104,406,104z"/>
	</g>
	<g>
		<rect x="366" y="282" fill="#FFF000" width="68" height="180"/>
	</g>
	<g>
		<rect x="510" y="282" fill="#FFF000" width="90" height="180"/>
	</g>
	<g>
		<path fill="#FFF000" d="M290,282h-24c0,0.7,0,1.3,0,2v52c0,11-9,20-20,20s-20-9-20-20v-52c0-0.7,0-1.3,0-2h-26v180h90V282z"/>
	</g>
	<g>
		<path fill="#E62864" d="M510,552c0,5.5-4.5,10-10,10h-56c-5.5,0-10-4.5-10-10v-90h-68v90c0,5.5-4.5,10-10,10h-56
			c-5.5,0-10-4.5-10-10v-90h-90v140c0,22.1,17.9,40,40,40h320c22.1,0,40-17.9,40-40V462h-90V552z"/>
	</g>
	<g>
		<path fill="#28C85A" d="M366,179.8c-31.3,9.4-58.1,26.4-76,52.9V282h76V179.8z"/>
	</g>
	<g>
		<path fill="#28C85A" d="M290,176.5c21.6-18.2,47.5-31.5,76-38v-30V84.9c-27.7,4.7-53.4,15.2-76,30.1v31.5V176.5z"/>
	</g>
	<g>
		<rect x="290" y="282" fill="#FFD214" width="76" height="180"/>
	</g>
	<g>
		<path fill="#BE003C" d="M290,552c0,5.5,4.5,10,10,10h56c5.5,0,10-4.5,10-10v-90h-76V552z"/>
	</g>
	<g>
		<path fill="#28C85A" d="M510,282V115c-22.6-14.9-48.3-25.3-76-30.1V282H510z"/>
	</g>
	<g>
		<rect x="434" y="282" fill="#FFD214" width="76" height="180"/>
	</g>
	<g>
		<path fill="#BE003C" d="M434,552c0,5.5,4.5,10,10,10h56c5.5,0,10-4.5,10-10v-90h-76V552z"/>
	</g>
	<g>
		<path fill="#96FFAA" d="M290,176.5v-30c-38.6,32.6-63.4,81.2-64,135.5h40c0.4-28.2,9.2-54.5,24-76.3V176.5z"/>
	</g>
	<g>
		<path fill="#FFFFB4" d="M226,284v52c0,11,9,20,20,20s20-9,20-20v-52c0-0.7,0-1.3,0-2h-40C226,282.7,226,283.3,226,284z"/>
	</g>
	<g>
		<path fill="#96FFAA" d="M406,144c11,0,20-9,20-20s-9-20-20-20c-13.7,0-27.1,1.6-40,4.5v30v11.3C378.7,146,392.1,144,406,144z"/>
	</g>
	<g>
		<path fill="#96FFAA" d="M290,232.7c17.9-26.5,44.7-43.5,76-52.9v-30v-11.3c-28.5,6.5-54.4,19.8-76,38v29.2V232.7z"/>
	</g>
</g>
</svg>
