<svg id="Layer_1" data-name="Layer 1" xmlns="http://www.w3.org/2000/svg" viewBox="0 0 67 67"><defs><style>.cls-1{fill:#fff;}</style></defs><title>Artboard 1</title><g id="_Group_" data-name="&lt;Group&gt;"><path id="_Path_" data-name="&lt;Path&gt;" class="cls-1" d="M42,47.69v4.62h0a2.82,2.82,0,0,0,2.86,2.75,2.89,2.89,0,0,0,2.75-2.86V47a2.82,2.82,0,0,0-2.86-2.75A2.89,2.89,0,0,0,42,47.14Z"/><path id="_Compound_Path_" data-name="&lt;Compound Path&gt;" class="cls-1" d="M33.5.5a33,33,0,1,0,33,33A33,33,0,0,0,33.5.5ZM26.35,52.64H25V56a.72.72,0,1,1-1.43,0V52.64H17.88a.74.74,0,0,1-.66-.44.83.83,0,0,1-.11-.55C19,46,20.85,40.54,22.61,34.93c.33-.88,1.76-.55,1.43.44L18.76,51.21h4.62V45.49a.72.72,0,1,1,1.43,0v5.72h1.32C27.34,51.21,27.34,52.64,26.35,52.64Zm11.44-.33a4.33,4.33,0,0,1-4.07,4.29h-.44a4.25,4.25,0,0,1-4.07-4.29.72.72,0,1,1,1.43,0,2.82,2.82,0,0,0,2.86,2.75,2.89,2.89,0,0,0,2.75-2.86V48.13c-.11-1.43-2.2-1.87-3.3-1.87a.57.57,0,0,1-.44-.22.75.75,0,0,1,.44-1.32c1.1,0,3.19-.44,3.3-1.87V38.78a2.81,2.81,0,0,0-5.61-.11c0,1-1.54,1-1.43,0a4.5,4.5,0,0,1,4.07-4.29h.44a4.41,4.41,0,0,1,4.07,4.29v4.07A3.26,3.26,0,0,1,36,45.38,3.38,3.38,0,0,1,37.9,48C37.79,49.56,37.79,50.88,37.79,52.31ZM33.5,17.55a5.31,5.31,0,0,1-5.28-5.39A5.38,5.38,0,0,1,33.5,6.77a5.31,5.31,0,0,1,5.28,5.39A5.24,5.24,0,0,1,33.5,17.55Zm11,25.52h.44A4.19,4.19,0,0,1,49,47v5.28h0v.11a4.33,4.33,0,0,1-4.07,4.29H44.5a4.25,4.25,0,0,1-4.07-4.29h0V38.78a4.33,4.33,0,0,1,4.07-4.29h.44A4.25,4.25,0,0,1,49,38.78a.72.72,0,1,1-1.43,0,2.81,2.81,0,0,0-5.61.11v5.28A3.58,3.58,0,0,1,44.5,43.07Z"/></g></svg>