<?xml version="1.0" encoding="utf-8"?>
<!-- Generator: Adobe Illustrator 23.0.1, SVG Export Plug-In . SVG Version: 6.00 Build 0)  -->
<svg version="1.0" id="Layer_1" xmlns="http://www.w3.org/2000/svg" xmlns:xlink="http://www.w3.org/1999/xlink" x="0px" y="0px" width="800px" height="800px"
	 viewBox="0 0 800 800" enable-background="new 0 0 800 800" xml:space="preserve">
<g>
	<g>
		<path fill="#28E65A" d="M600,282c0-69.8-35.8-131.3-90-167v167H600z"/>
	</g>
	<g>
		<rect x="366" y="282" fill="#FFF000" width="68" height="180"/>
	</g>
	<g>
		<rect x="510" y="282" fill="#FFF000" width="90" height="180"/>
	</g>
	<g>
		<path fill="#E62864" d="M510,552c0,5.5-4.5,10-10,10h-56c-5.5,0-10-4.5-10-10v-90h-68v90c0,5.5-4.5,10-10,10h-56
			c-5.5,0-10-4.5-10-10v-90h-90v140c0,22.1,17.9,40,40,40h320c22.1,0,40-17.9,40-40V462h-90V552z"/>
	</g>
	<g>
		<rect x="290" y="282" fill="#FFD214" width="76" height="180"/>
	</g>
	<g>
		<path fill="#BE003C" d="M290,552c0,5.5,4.5,10,10,10h56c5.5,0,10-4.5,10-10v-90h-76V552z"/>
	</g>
	<g>
		<path fill="#28C85A" d="M510,282V115c-22.6-14.9-48.3-25.3-76-30.1V282H510z"/>
	</g>
	<g>
		<rect x="434" y="282" fill="#FFD214" width="76" height="180"/>
	</g>
	<g>
		<path fill="#BE003C" d="M434,552c0,5.5,4.5,10,10,10h56c5.5,0,10-4.5,10-10v-90h-76V552z"/>
	</g>
	<g>
		<path fill="#28E65A" d="M200,282h90V115C235.8,150.7,200,212.2,200,282z"/>
	</g>
	<g>
		<rect x="200" y="282" fill="#FFF000" width="90" height="180"/>
	</g>
	<g>
		<path fill="#28E65A" d="M400,82c-11.6,0-22.9,1-34,2.9V282h68V84.9C422.9,83,411.6,82,400,82z"/>
	</g>
	<g>
		<path fill="#28C85A" d="M290,115v167h76V84.9C338.3,89.6,312.6,100.1,290,115z"/>
	</g>
</g>
</svg>
