<?xml version="1.0" encoding="utf-8"?>
<!-- Generator: Adobe Illustrator 19.0.0, SVG Export Plug-In . SVG Version: 6.00 Build 0)  -->
<svg version="1.1" id="Layer_1" xmlns="http://www.w3.org/2000/svg" xmlns:xlink="http://www.w3.org/1999/xlink" x="0px" y="0px"
	 viewBox="0 0 1018 238.3" enable-background="new 0 0 1018 238.3" xml:space="preserve">
<g>
	<g>
		<g>
			<circle fill="#FFFFFF" stroke="#EF4237" stroke-width="5.6693" stroke-miterlimit="10" cx="119.1" cy="119.1" r="116.3"/>
			<g display="none">
				
					<path id="XMLID_46_" display="inline" fill="none" stroke="#EF4136" stroke-width="5" stroke-miterlimit="10" stroke-dasharray="8.0249,8.0249" d="
					M12.1,119.1c0-65.8,47.9-107,107-107s107,47.9,107,107c0,59.1-47.9,107-107,107S12.1,178.2,12.1,119.1z"/>
			</g>
		</g>
	</g>
	<g>
		<g>
			<path d="M52.6,133.4V110c0-0.5,0.2-1,0.6-1.5c0.4-0.5,0.9-0.7,1.5-0.7h10.8c0.6,0,1.1,0.2,1.5,0.6c0.4,0.4,0.6,0.9,0.6,1.5v22.6
				c0,4.9,1.5,9.1,4.6,12.4c3.1,3.3,7,5,11.9,5c4.9,0,8.9-1.7,12-5c3.1-3.3,4.7-7.4,4.7-12.3V86c0-0.6,0.2-1.1,0.6-1.5
				c0.4-0.4,0.9-0.6,1.5-0.6H114c0.5,0,1,0.2,1.5,0.7s0.7,1,0.7,1.5v47.4c0,8.7-3.1,16.2-9.2,22.2c-6.1,6.1-13.7,9.1-22.6,9.1
				c-8.9,0-16.4-3-22.5-9.1C55.7,149.6,52.6,142.2,52.6,133.4z"/>
			<path d="M135.7,161.5V86c0-0.6,0.2-1.1,0.6-1.5c0.4-0.4,0.9-0.6,1.5-0.6h26.8c7,0,13,2.5,18,7.4c5,4.9,7.5,10.9,7.5,17.8
				c0,7.1-2.5,13.1-7.5,18.1c-5,5-11,7.5-18,7.5h-14.3v26.8c0,0.5-0.2,1-0.6,1.5c-0.4,0.5-0.9,0.7-1.5,0.7h-10.5
				c-0.6,0-1.1-0.2-1.5-0.6C136,162.6,135.7,162.1,135.7,161.5z M150.6,120.8h13.2c3.2,0,5.9-1.1,8.3-3.4c2.3-2.3,3.5-5.1,3.5-8.4
				c0-3.1-1.2-5.7-3.5-7.9c-2.3-2.1-5.1-3.2-8.3-3.2h-13.2V120.8z"/>
		</g>
		<g>
			<g>
				<polygon fill="#E35050" points="46.7,101.7 74.4,101.7 60.6,80.2 				"/>
			</g>
		</g>
	</g>
</g>
<g id="XMLID_6_">
	<path id="XMLID_7_" d="M291.8,168.9c-1.6-1.4-1.9-3-0.9-4.8c0.4-0.6,1-1.6,1.9-3.1c0.8-1.4,1.5-2.5,2-3.1c1.6-2.3,3.3-2.7,5.1-1.2
		c8.3,6.9,16.3,10.3,24,10.3c5.1,0,9.2-1.3,12.3-4c3.1-2.7,4.6-6,4.6-9.9c0-4.3-1.8-8-5.5-11.2c-3.6-3.2-9.4-6.4-17.1-9.6
		c-8.8-3.7-15.5-7.9-20.2-12.7c-4.7-4.7-7-11.1-7-19.1c0-3.1,0.6-6.2,1.9-9.3c1.2-3.1,3.1-6.1,5.5-8.9c2.4-2.8,5.9-5.1,10.3-6.9
		c4.4-1.7,9.4-2.6,15.1-2.6c10.1,0,19.3,2.9,27.7,8.8c2,1.3,2.3,3,0.9,5.1c-0.4,0.6-1,1.5-1.9,2.8c-0.8,1.3-1.5,2.2-1.9,2.8
		c-1.4,2.3-3.1,2.8-5.2,1.5c-8.8-5-15.5-7.5-20.2-7.5c-5.7,0-9.9,1.4-12.7,4.2c-2.8,2.8-4.2,5.9-4.2,9.3c0,4.1,1.5,7.6,4.6,10.5
		c3.1,2.9,7.9,5.7,14.4,8.4c10.4,4.2,18.3,8.8,23.9,13.7c5.5,4.9,8.3,11.6,8.3,19.8c0,7.9-3.2,14.6-9.5,20.1
		c-6.3,5.5-14.3,8.2-23.9,8.2c-5.5,0-10.8-0.9-15.9-2.7c-5.1-1.8-8.8-3.4-10.9-4.9C295,171.6,293.2,170.2,291.8,168.9z"/>
	<path id="XMLID_10_" d="M392.5,176.4V88.5H368c-0.8,0-1.5-0.3-2-0.8c-0.5-0.5-0.8-1.2-0.8-2v-8.4c0-0.8,0.3-1.5,0.8-2
		c0.5-0.5,1.2-0.8,2-0.8h64.4c0.8,0,1.5,0.3,2,0.8c0.5,0.5,0.8,1.2,0.8,2v8.4c0,0.8-0.3,1.5-0.8,2c-0.5,0.5-1.2,0.8-2,0.8H408v87.9
		c0,0.7-0.3,1.3-0.8,1.9c-0.5,0.6-1.2,0.9-2,0.9h-9.9c-0.8,0-1.5-0.3-2-0.9C392.7,177.7,392.5,177.1,392.5,176.4z"/>
	<path id="XMLID_48_" d="M434.2,179.2c-1.1,0-1.9-0.4-2.5-1.2c-0.5-0.8-0.6-1.7-0.1-2.7l46-100.8c0.6-1.1,1.4-1.6,2.5-1.6h1.5
		c1.1,0,1.9,0.5,2.5,1.6l45.7,100.8c0.5,1,0.5,1.9-0.1,2.7c-0.5,0.8-1.4,1.2-2.5,1.2h-9.4c-1.6,0-2.7-0.7-3.4-2.2l-9.3-20.5h-49
		c-1,2.3-2.5,5.7-4.6,10.3c-2,4.5-3.6,8-4.6,10.3c-0.6,1.5-1.7,2.2-3.4,2.2H434.2z M462.1,143.6h37.4l-18.4-41h-0.7L462.1,143.6z"/>
	<path id="XMLID_52_" d="M544.9,176.4V77.3c0-0.8,0.3-1.5,0.8-2c0.5-0.5,1.2-0.8,2-0.8h40.7c9,0,16.7,3.1,23.1,9.4
		c6.4,6.2,9.6,13.8,9.6,22.7c0,6.8-2,12.9-6.1,18.3c-4,5.4-9.4,9.4-16.1,12.1l20.5,38c0.6,1,0.6,2,0.1,2.9c-0.5,1-1.4,1.4-2.6,1.4
		h-11.7c-1.2,0-2-0.4-2.4-1.3l-19.9-39.7h-22.6v38.2c0,0.7-0.3,1.3-0.9,1.9c-0.6,0.6-1.2,0.9-1.9,0.9h-9.7c-0.8,0-1.5-0.3-2-0.8
		C545.1,177.9,544.9,177.2,544.9,176.4z M560.6,125.3h26.7c4.9,0,9.2-1.8,12.8-5.5c3.6-3.6,5.5-8,5.5-13.1c0-4.8-1.8-9-5.5-12.5
		c-3.6-3.5-7.9-5.3-12.8-5.3h-26.7V125.3z"/>
	<path id="XMLID_55_" d="M658.8,176.4V88.5h-24.4c-0.8,0-1.5-0.3-2-0.8c-0.5-0.5-0.8-1.2-0.8-2v-8.4c0-0.8,0.3-1.5,0.8-2
		c0.5-0.5,1.2-0.8,2-0.8h64.4c0.8,0,1.5,0.3,2,0.8c0.5,0.5,0.8,1.2,0.8,2v8.4c0,0.8-0.3,1.5-0.8,2c-0.5,0.5-1.2,0.8-2,0.8h-24.4
		v87.9c0,0.7-0.3,1.3-0.8,1.9c-0.5,0.6-1.2,0.9-2,0.9h-9.9c-0.8,0-1.5-0.3-2-0.9C659.1,177.7,658.8,177.1,658.8,176.4z"/>
	<path id="XMLID_57_" d="M717.8,176.4V77.3c0-0.7,0.3-1.3,0.8-1.9c0.5-0.6,1.2-0.9,2-0.9h9.9c0.8,0,1.5,0.3,2,0.9
		c0.5,0.6,0.8,1.2,0.8,1.9v99.1c0,0.7-0.3,1.3-0.8,1.9c-0.5,0.6-1.2,0.9-2,0.9h-9.9c-0.8,0-1.5-0.3-2-0.9
		C718.1,177.7,717.8,177.1,717.8,176.4z"/>
	<path id="XMLID_59_" d="M776.8,176.4V88.5h-24.4c-0.8,0-1.5-0.3-2-0.8c-0.5-0.5-0.8-1.2-0.8-2v-8.4c0-0.8,0.3-1.5,0.8-2
		c0.5-0.5,1.2-0.8,2-0.8h64.4c0.8,0,1.5,0.3,2,0.8c0.5,0.5,0.8,1.2,0.8,2v8.4c0,0.8-0.3,1.5-0.8,2c-0.5,0.5-1.2,0.8-2,0.8h-24.4
		v87.9c0,0.7-0.3,1.3-0.8,1.9c-0.5,0.6-1.2,0.9-2,0.9h-9.9c-0.8,0-1.5-0.3-2-0.9C777.1,177.7,776.8,177.1,776.8,176.4z"/>
	<path id="XMLID_61_" fill="#E35050" d="M834.4,140.1V77.3c0-0.7,0.3-1.3,0.9-1.9c0.6-0.6,1.2-0.9,1.9-0.9h10c0.8,0,1.5,0.3,2,0.8
		c0.5,0.5,0.8,1.2,0.8,2v61.8c0,7.7,2.3,14.1,6.8,19.1c4.5,5,10.6,7.6,18,7.6c7.6,0,13.7-2.5,18.3-7.5c4.6-5,6.9-11.3,6.9-18.9V77.3
		c0-0.8,0.3-1.5,0.8-2c0.5-0.5,1.2-0.8,2-0.8h10c0.7,0,1.3,0.3,1.9,0.9c0.6,0.6,0.9,1.2,0.9,1.9v62.9c0,11.5-3.9,21.1-11.6,28.9
		c-7.7,7.8-17.5,11.7-29.3,11.7c-11.7,0-21.4-3.9-29-11.7C838.3,161.3,834.4,151.6,834.4,140.1z"/>
	<path id="XMLID_63_" fill="#E35050" d="M943.6,176.4V77.3c0-0.8,0.3-1.5,0.8-2c0.5-0.5,1.2-0.8,2-0.8h34.1c9.2,0,17.1,3.2,23.7,9.7
		c6.6,6.5,9.9,14.3,9.9,23.4c0,9.3-3.3,17.2-9.8,23.8c-6.5,6.6-14.4,9.9-23.6,9.9H959v35.2c0,0.7-0.3,1.3-0.9,1.9
		c-0.6,0.6-1.2,0.9-1.9,0.9h-9.7c-0.8,0-1.5-0.3-2-0.8C943.8,177.9,943.6,177.2,943.6,176.4z M959,126.5h20.7
		c5.2,0,9.7-1.8,13.4-5.5c3.7-3.7,5.6-8.2,5.6-13.6c0-5.1-1.9-9.4-5.6-12.8c-3.7-3.4-8.2-5.2-13.4-5.2H959V126.5z"/>
</g>
<g id="XMLID_66_">
</g>
<g id="XMLID_67_">
</g>
<g id="XMLID_68_">
</g>
<g id="XMLID_69_">
</g>
<g id="XMLID_70_">
</g>
<g id="XMLID_71_">
</g>
</svg>
